<svg width="86" height="86" viewBox="0 0 86 86" fill="none" xmlns="http://www.w3.org/2000/svg">
<rect width="86" height="86" rx="16" fill="#D1DEFF"/>
<path d="M62.1086 27.1581C62.0296 26.5908 61.6214 26.1242 61.0696 25.9708L43.3853 21.0527C43.1332 20.9826 42.8669 20.9826 42.6146 21.0527L24.9302 25.9708C24.3784 26.1242 23.9703 26.5906 23.8913 27.1581C23.7887 27.8957 21.4488 45.3223 27.4506 53.9916C33.4453 62.6505 42.2888 64.8695 42.6623 64.9598C42.7733 64.9866 42.8864 64.9998 42.9999 64.9998C43.1134 64.9998 43.2265 64.9864 43.3376 64.9598C43.7112 64.8695 52.5547 62.6505 58.5493 53.9916C64.5511 45.3225 62.2112 27.8959 62.1086 27.1581ZM54.4041 37.332L42.3416 49.3945C42.0609 49.6752 41.6928 49.8157 41.3249 49.8157C40.957 49.8157 40.5888 49.6754 40.3082 49.3945L32.85 41.9364C32.5803 41.6668 32.4288 41.301 32.4288 40.9197C32.4288 40.5383 32.5805 40.1725 32.85 39.903L34.3309 38.4221C34.8924 37.8607 35.8029 37.8606 36.3643 38.4221L41.3249 43.3827L50.8898 33.8175C51.1594 33.5478 51.5252 33.3963 51.9065 33.3963C52.2879 33.3963 52.6537 33.5478 52.9232 33.8175L54.4041 35.2984C54.9656 35.8599 54.9656 36.7704 54.4041 37.332Z" fill="#3570D2"/>
</svg>
