<svg width="86" height="86" viewBox="0 0 86 86" fill="none" xmlns="http://www.w3.org/2000/svg">
<rect width="86" height="86" rx="16" fill="#D1DEFF"/>
<g clip-path="url(#clip0_413_692)">
<path d="M50.0386 51.8363L52.0507 48.5713L55.6817 47.333L56.084 43.5193L58.8159 40.8299L57.517 37.22L58.8159 33.61L56.0841 30.9206L55.6818 27.1071L52.0508 25.8687L50.0387 22.6037L46.233 23.0632L43.0001 21L39.7672 23.0634L35.9616 22.6039L33.9495 25.8688L30.3185 27.1071L29.9162 30.9207L27.1843 33.6101L28.4832 37.2201L27.1843 40.8301L29.9161 43.5194L30.3184 47.3331L33.9494 48.5714L35.9615 51.8363L39.7672 51.3769L43.0001 53.4402L46.233 51.3769L50.0386 51.8363ZM31.8773 37.2201C31.8773 31.087 36.867 26.0973 43.0001 26.0973C49.1332 26.0973 54.1229 31.087 54.1229 37.2201C54.1229 43.3532 49.1332 48.3429 43.0001 48.3429C36.867 48.3429 31.8773 43.3532 31.8773 37.2201Z" fill="#3570D2"/>
<path d="M43.0001 28.677C38.2894 28.677 34.457 32.5094 34.457 37.22C34.457 41.9307 38.2894 45.7631 43.0001 45.7631C47.7107 45.7631 51.5431 41.9307 51.5431 37.22C51.5431 32.5094 47.7107 28.677 43.0001 28.677Z" fill="#3570D2"/>
<path d="M39.1585 54.0487L34.6314 54.5953L32.2395 50.7138L31.4263 50.4365L27.9189 61.3992L34.2332 61.052L39.1733 65L42.0804 55.9136L39.1585 54.0487Z" fill="#3570D2"/>
<path d="M53.7606 50.7138L51.3687 54.5953L46.8416 54.0487L43.9197 55.9136L46.8268 65L51.7669 61.052L58.0811 61.3992L54.5738 50.4365L53.7606 50.7138Z" fill="#3570D2"/>
</g>
<defs>
<clipPath id="clip0_413_692">
<rect width="44" height="44" fill="white" transform="translate(21 21)"/>
</clipPath>
</defs>
</svg>
