<svg width="86" height="86" viewBox="0 0 86 86" fill="none" xmlns="http://www.w3.org/2000/svg">
<rect width="86" height="86" rx="16" fill="#D1DEFF"/>
<g clip-path="url(#clip0_413_702)">
<path d="M44.289 39.3703V32.6875H41.7109V39.3703C40.2136 39.9042 39.1327 41.3216 39.1327 43C39.1327 43.3268 39.1857 43.639 39.2624 43.9424L34.5505 47.0837L35.9805 49.2288L40.6943 46.0862C41.3399 46.5701 42.1327 46.8672 42.9999 46.8672C45.1324 46.8672 46.8671 45.1325 46.8671 43C46.8671 41.3216 45.7862 39.9042 44.289 39.3703Z" fill="#3570D2"/>
<path d="M64.8338 40.296C63.4856 29.344 54.0502 21 43 21C35.739 21 29.1149 24.5704 25.0135 30.4769L21 27.5312V42.0735L35.6282 38.4379L31.2121 35.1259C33.8368 31.2096 38.2567 28.8203 43 28.8203C50.3252 28.8203 56.3916 34.3127 57.1104 41.5951L57.2502 43.0113L64.9798 41.483L64.8338 40.296Z" fill="#3570D2"/>
<path d="M50.3718 47.562L54.7878 50.8741C52.1631 54.7903 47.7433 57.1797 43 57.1797C35.573 57.1797 29.463 51.4467 28.8681 44.1707L28.7435 42.6576L21.0251 44.5647L21.1649 45.6964C22.5093 56.6522 31.946 65 43 65C50.261 65 56.8851 61.4295 60.9864 55.523L65 58.4687V43.9265L50.3718 47.562Z" fill="#3570D2"/>
</g>
<defs>
<clipPath id="clip0_413_702">
<rect width="44" height="44" fill="white" transform="translate(21 21)"/>
</clipPath>
</defs>
</svg>
