<svg width="183" height="175" viewBox="0 0 183 175" fill="none" xmlns="http://www.w3.org/2000/svg">
<rect width="183" height="175" rx="16" fill="#FBFBFB"/>
<rect x="52" y="20" width="80" height="80" rx="40" fill="#FFEAEB"/>
<g clip-path="url(#clip0_413_445)">
<path d="M106.21 45.851H105.782C104.996 45.851 104.358 46.4885 104.358 47.2749V51.6226H107.634V47.2749C107.634 46.4885 106.996 45.851 106.21 45.851Z" fill="#DA4A54"/>
<path d="M78.2175 45.851H77.7899C77.0035 45.851 76.366 46.4885 76.366 47.2749V51.6226H79.6415V47.2749C79.6414 46.4885 79.0039 45.851 78.2175 45.851Z" fill="#DA4A54"/>
<path d="M100.118 55.1649H83.8823C82.9043 55.1649 82.1116 54.3722 82.1116 53.3942V45.8109C82.1116 42.8966 84.4826 40.5255 87.3969 40.5255H96.6031C99.5174 40.5255 101.888 42.8966 101.888 45.8109V53.3942C101.888 54.3721 101.096 55.1649 100.118 55.1649ZM85.653 51.6235H98.347V45.8109C98.347 44.8493 97.5647 44.0669 96.6031 44.0669H87.3969C86.4353 44.0669 85.653 44.8493 85.653 45.8109V51.6235Z" fill="#DA4A54"/>
<path d="M98.1763 44.0659H96.603C97.5647 44.0659 98.3469 44.8483 98.3469 45.8098V51.6225H99.9202V45.8098C99.9202 44.8483 99.1379 44.0659 98.1763 44.0659Z" fill="#C32430"/>
<path d="M83.6849 53.3933V45.8098C83.6849 42.8956 86.0559 40.5245 88.9702 40.5245H87.3969C84.4826 40.5245 82.1116 42.8956 82.1116 45.8098V53.3932C82.1116 54.3712 82.9043 55.1639 83.8823 55.1639H85.4556C84.4776 55.164 83.6849 54.3712 83.6849 53.3933Z" fill="#C32430"/>
<path d="M105.607 49.3452H78.3933C74.8623 49.3452 72 52.2076 72 55.7384V73.0818C72 76.6127 74.8623 79.4751 78.3933 79.4751H105.607C109.138 79.4751 112 76.6127 112 73.0818V55.7384C112 52.2076 109.138 49.3452 105.607 49.3452Z" fill="#F9F6F9"/>
<path d="M80.7054 79.4755H78.393C74.8621 79.4755 72 76.6126 72 73.0824V55.7384C72 52.2075 74.8621 49.3454 78.393 49.3454H80.7054C77.1745 49.3454 74.3116 52.2075 74.3116 55.7384V73.0824C74.3116 76.6126 77.1745 79.4755 80.7054 79.4755Z" fill="#DFEAEF"/>
<path d="M100.916 60.4423H95.968V55.4944C95.968 54.6 95.2429 53.8749 94.3485 53.8749H89.652C88.7576 53.8749 88.0325 54.6 88.0325 55.4944V60.4423H83.0845C82.1902 60.4423 81.4651 61.1674 81.4651 62.0618V66.7583C81.4651 67.6527 82.1902 68.3778 83.0845 68.3778H88.0325V73.3258C88.0325 74.2201 88.7576 74.9452 89.652 74.9452H94.3485C95.2429 74.9452 95.968 74.2201 95.968 73.3258V68.3778H100.916C101.81 68.3778 102.535 67.6527 102.535 66.7583V62.0618C102.535 61.1674 101.81 60.4423 100.916 60.4423Z" fill="#DA4A54"/>
</g>
<path d="M35.6949 148C35.3469 148 35.0709 147.904 34.8669 147.712C34.6749 147.52 34.5789 147.25 34.5789 146.902V136.408C34.5789 136.06 34.6749 135.79 34.8669 135.598C35.0709 135.406 35.3469 135.31 35.6949 135.31H39.2589C41.3349 135.31 42.9429 135.868 44.0829 136.984C45.2349 138.088 45.8109 139.642 45.8109 141.646C45.8109 143.662 45.2349 145.228 44.0829 146.344C42.9429 147.448 41.3349 148 39.2589 148H35.6949ZM39.1149 146.11C42.0309 146.11 43.4889 144.622 43.4889 141.646C43.4889 138.682 42.0309 137.2 39.1149 137.2H36.9009V146.11H39.1149ZM51.9653 148.144C51.0653 148.144 50.2733 147.958 49.5893 147.586C48.9173 147.214 48.3953 146.68 48.0233 145.984C47.6513 145.288 47.4653 144.478 47.4653 143.554C47.4653 142.63 47.6513 141.826 48.0233 141.142C48.3953 140.446 48.9173 139.912 49.5893 139.54C50.2733 139.168 51.0653 138.982 51.9653 138.982C52.8653 138.982 53.6513 139.168 54.3233 139.54C55.0073 139.912 55.5293 140.446 55.8893 141.142C56.2613 141.826 56.4473 142.63 56.4473 143.554C56.4473 144.478 56.2613 145.288 55.8893 145.984C55.5293 146.68 55.0073 147.214 54.3233 147.586C53.6513 147.958 52.8653 148.144 51.9653 148.144ZM51.9473 146.398C52.6793 146.398 53.2373 146.158 53.6213 145.678C54.0053 145.198 54.1973 144.49 54.1973 143.554C54.1973 142.63 54.0053 141.928 53.6213 141.448C53.2373 140.956 52.6853 140.71 51.9653 140.71C51.2453 140.71 50.6873 140.956 50.2913 141.448C49.9073 141.928 49.7153 142.63 49.7153 143.554C49.7153 144.49 49.9073 145.198 50.2913 145.678C50.6753 146.158 51.2273 146.398 51.9473 146.398ZM66.1348 146.254C66.3748 146.482 66.4948 146.74 66.4948 147.028C66.4948 147.304 66.3928 147.55 66.1888 147.766C65.9968 147.982 65.7688 148.09 65.5048 148.09C65.2408 148.09 64.9948 147.982 64.7668 147.766L60.5548 143.95V147.028C60.5548 147.376 60.4468 147.64 60.2308 147.82C60.0148 148 59.7448 148.09 59.4208 148.09C59.0968 148.09 58.8268 148 58.6108 147.82C58.4068 147.64 58.3048 147.376 58.3048 147.028V136.282C58.3048 135.934 58.4068 135.67 58.6108 135.49C58.8268 135.31 59.0968 135.22 59.4208 135.22C59.7448 135.22 60.0148 135.31 60.2308 135.49C60.4468 135.67 60.5548 135.934 60.5548 136.282V143.05L64.4068 139.36C64.6228 139.144 64.8688 139.036 65.1448 139.036C65.4208 139.036 65.6608 139.138 65.8648 139.342C66.0688 139.546 66.1708 139.786 66.1708 140.062C66.1708 140.338 66.0568 140.59 65.8288 140.818L63.0028 143.446L66.1348 146.254ZM72.492 146.434C73.092 146.47 73.392 146.74 73.392 147.244C73.392 147.532 73.272 147.754 73.032 147.91C72.804 148.054 72.474 148.114 72.042 148.09L71.556 148.054C69.54 147.91 68.532 146.83 68.532 144.814V140.89H67.632C67.308 140.89 67.056 140.818 66.876 140.674C66.708 140.53 66.624 140.32 66.624 140.044C66.624 139.768 66.708 139.558 66.876 139.414C67.056 139.27 67.308 139.198 67.632 139.198H68.532V137.542C68.532 137.218 68.634 136.96 68.838 136.768C69.042 136.576 69.318 136.48 69.666 136.48C70.002 136.48 70.272 136.576 70.476 136.768C70.68 136.96 70.782 137.218 70.782 137.542V139.198H72.312C72.636 139.198 72.882 139.27 73.05 139.414C73.23 139.558 73.32 139.768 73.32 140.044C73.32 140.32 73.23 140.53 73.05 140.674C72.882 140.818 72.636 140.89 72.312 140.89H70.782V144.976C70.782 145.864 71.19 146.338 72.006 146.398L72.492 146.434ZM81.5305 145.588C81.7345 145.588 81.8965 145.666 82.0165 145.822C82.1485 145.978 82.2145 146.188 82.2145 146.452C82.2145 146.824 81.9925 147.136 81.5485 147.388C81.1405 147.616 80.6785 147.802 80.1625 147.946C79.6465 148.078 79.1545 148.144 78.6865 148.144C77.2705 148.144 76.1485 147.736 75.3205 146.92C74.4925 146.104 74.0785 144.988 74.0785 143.572C74.0785 142.672 74.2585 141.874 74.6185 141.178C74.9785 140.482 75.4825 139.942 76.1305 139.558C76.7905 139.174 77.5345 138.982 78.3625 138.982C79.1545 138.982 79.8445 139.156 80.4325 139.504C81.0205 139.852 81.4765 140.344 81.8005 140.98C82.1245 141.616 82.2865 142.366 82.2865 143.23C82.2865 143.746 82.0585 144.004 81.6025 144.004H76.2925C76.3645 144.832 76.5985 145.444 76.9945 145.84C77.3905 146.224 77.9665 146.416 78.7225 146.416C79.1065 146.416 79.4425 146.368 79.7305 146.272C80.0305 146.176 80.3665 146.044 80.7385 145.876C81.0985 145.684 81.3625 145.588 81.5305 145.588ZM78.4165 140.566C77.8045 140.566 77.3125 140.758 76.9405 141.142C76.5805 141.526 76.3645 142.078 76.2925 142.798H80.3605C80.3365 142.066 80.1565 141.514 79.8205 141.142C79.4845 140.758 79.0165 140.566 78.4165 140.566ZM89.041 139.018C89.353 138.994 89.599 139.06 89.779 139.216C89.959 139.372 90.049 139.606 90.049 139.918C90.049 140.242 89.971 140.482 89.815 140.638C89.659 140.794 89.377 140.896 88.969 140.944L88.429 140.998C87.721 141.07 87.199 141.31 86.863 141.718C86.539 142.126 86.377 142.636 86.377 143.248V147.028C86.377 147.376 86.269 147.646 86.053 147.838C85.837 148.018 85.567 148.108 85.243 148.108C84.919 148.108 84.649 148.018 84.433 147.838C84.229 147.646 84.127 147.376 84.127 147.028V140.062C84.127 139.726 84.229 139.468 84.433 139.288C84.649 139.108 84.913 139.018 85.225 139.018C85.537 139.018 85.789 139.108 85.981 139.288C86.173 139.456 86.269 139.702 86.269 140.026V140.746C86.497 140.218 86.833 139.81 87.277 139.522C87.733 139.234 88.237 139.072 88.789 139.036L89.041 139.018ZM101.34 148.162C99.6004 148.162 98.2804 147.712 97.3804 146.812C96.4804 145.912 96.0304 144.598 96.0304 142.87V136.372C96.0304 136.024 96.1324 135.748 96.3364 135.544C96.5404 135.328 96.8164 135.22 97.1644 135.22C97.5124 135.22 97.7884 135.328 97.9924 135.544C98.1964 135.748 98.2984 136.024 98.2984 136.372V142.996C98.2984 144.088 98.5564 144.916 99.0724 145.48C99.5884 146.032 100.344 146.308 101.34 146.308C102.324 146.308 103.074 146.026 103.59 145.462C104.106 144.898 104.364 144.076 104.364 142.996V136.372C104.364 136.024 104.466 135.748 104.67 135.544C104.874 135.328 105.15 135.22 105.498 135.22C105.846 135.22 106.122 135.328 106.326 135.544C106.53 135.748 106.632 136.024 106.632 136.372V142.87C106.632 144.586 106.182 145.9 105.282 146.812C104.382 147.712 103.068 148.162 101.34 148.162ZM119.564 138.982C120.524 138.982 121.256 139.27 121.76 139.846C122.276 140.41 122.534 141.328 122.534 142.6V147.028C122.534 147.376 122.426 147.646 122.21 147.838C122.006 148.018 121.736 148.108 121.4 148.108C121.076 148.108 120.806 148.018 120.59 147.838C120.386 147.646 120.284 147.376 120.284 147.028V142.6C120.284 141.94 120.164 141.472 119.924 141.196C119.696 140.908 119.342 140.764 118.862 140.764C118.274 140.764 117.806 140.968 117.458 141.376C117.11 141.772 116.936 142.318 116.936 143.014V147.028C116.936 147.376 116.828 147.646 116.612 147.838C116.408 148.018 116.144 148.108 115.82 148.108C115.496 148.108 115.226 148.018 115.01 147.838C114.794 147.646 114.686 147.376 114.686 147.028V142.6C114.686 141.94 114.566 141.472 114.326 141.196C114.098 140.908 113.744 140.764 113.264 140.764C112.676 140.764 112.208 140.968 111.86 141.376C111.524 141.772 111.356 142.318 111.356 143.014V147.028C111.356 147.376 111.248 147.646 111.032 147.838C110.816 148.018 110.546 148.108 110.222 148.108C109.898 148.108 109.628 148.018 109.412 147.838C109.208 147.646 109.106 147.376 109.106 147.028V140.062C109.106 139.726 109.214 139.468 109.43 139.288C109.646 139.108 109.916 139.018 110.24 139.018C110.552 139.018 110.804 139.108 110.996 139.288C111.2 139.456 111.302 139.702 111.302 140.026V140.458C111.578 139.978 111.944 139.612 112.4 139.36C112.868 139.108 113.402 138.982 114.002 138.982C115.322 138.982 116.204 139.534 116.648 140.638C116.912 140.134 117.302 139.732 117.818 139.432C118.334 139.132 118.916 138.982 119.564 138.982ZM131.768 139.018C132.116 139.018 132.392 139.114 132.596 139.306C132.8 139.498 132.902 139.756 132.902 140.08V147.064C132.902 147.376 132.794 147.628 132.578 147.82C132.374 148.012 132.104 148.108 131.768 148.108C131.444 148.108 131.186 148.018 130.994 147.838C130.802 147.658 130.706 147.412 130.706 147.1V146.65C130.43 147.13 130.058 147.502 129.59 147.766C129.122 148.018 128.594 148.144 128.006 148.144C125.846 148.144 124.766 146.932 124.766 144.508V140.08C124.766 139.756 124.868 139.498 125.072 139.306C125.276 139.114 125.546 139.018 125.882 139.018C126.23 139.018 126.506 139.114 126.71 139.306C126.914 139.498 127.016 139.756 127.016 140.08V144.526C127.016 145.15 127.142 145.612 127.394 145.912C127.646 146.212 128.042 146.362 128.582 146.362C129.206 146.362 129.704 146.158 130.076 145.75C130.46 145.33 130.652 144.778 130.652 144.094V140.08C130.652 139.756 130.754 139.498 130.958 139.306C131.162 139.114 131.432 139.018 131.768 139.018ZM145.702 138.982C146.662 138.982 147.394 139.27 147.898 139.846C148.414 140.41 148.672 141.328 148.672 142.6V147.028C148.672 147.376 148.564 147.646 148.348 147.838C148.144 148.018 147.874 148.108 147.538 148.108C147.214 148.108 146.944 148.018 146.728 147.838C146.524 147.646 146.422 147.376 146.422 147.028V142.6C146.422 141.94 146.302 141.472 146.062 141.196C145.834 140.908 145.48 140.764 145 140.764C144.412 140.764 143.944 140.968 143.596 141.376C143.248 141.772 143.074 142.318 143.074 143.014V147.028C143.074 147.376 142.966 147.646 142.75 147.838C142.546 148.018 142.282 148.108 141.958 148.108C141.634 148.108 141.364 148.018 141.148 147.838C140.932 147.646 140.824 147.376 140.824 147.028V142.6C140.824 141.94 140.704 141.472 140.464 141.196C140.236 140.908 139.882 140.764 139.402 140.764C138.814 140.764 138.346 140.968 137.998 141.376C137.662 141.772 137.494 142.318 137.494 143.014V147.028C137.494 147.376 137.386 147.646 137.17 147.838C136.954 148.018 136.684 148.108 136.36 148.108C136.036 148.108 135.766 148.018 135.55 147.838C135.346 147.646 135.244 147.376 135.244 147.028V140.062C135.244 139.726 135.352 139.468 135.568 139.288C135.784 139.108 136.054 139.018 136.378 139.018C136.69 139.018 136.942 139.108 137.134 139.288C137.338 139.456 137.44 139.702 137.44 140.026V140.458C137.716 139.978 138.082 139.612 138.538 139.36C139.006 139.108 139.54 138.982 140.14 138.982C141.46 138.982 142.342 139.534 142.786 140.638C143.05 140.134 143.44 139.732 143.956 139.432C144.472 139.132 145.054 138.982 145.702 138.982Z" fill="#110F14"/>
<defs>
<clipPath id="clip0_413_445">
<rect width="40" height="40" fill="white" transform="translate(72 40)"/>
</clipPath>
</defs>
</svg>
