<svg width="183" height="175" viewBox="0 0 183 175" fill="none" xmlns="http://www.w3.org/2000/svg">
<rect width="183" height="175" rx="16" fill="#FBFBFB"/>
<path d="M58.8384 148.108C58.4904 148.108 58.2084 148.006 57.9924 147.802C57.7884 147.586 57.6864 147.298 57.6864 146.938V136.408C57.6864 136.06 57.7824 135.79 57.9744 135.598C58.1784 135.406 58.4544 135.31 58.8024 135.31H63.2304C64.5864 135.31 65.6424 135.652 66.3984 136.336C67.1544 137.008 67.5324 137.956 67.5324 139.18C67.5324 140.404 67.1544 141.358 66.3984 142.042C65.6424 142.726 64.5864 143.068 63.2304 143.068H60.0084V146.938C60.0084 147.298 59.9004 147.586 59.6844 147.802C59.4804 148.006 59.1984 148.108 58.8384 148.108ZM62.9424 141.286C64.5384 141.286 65.3364 140.59 65.3364 139.198C65.3364 137.806 64.5384 137.11 62.9424 137.11H60.0084V141.286H62.9424ZM76.0208 145.588C76.2248 145.588 76.3868 145.666 76.5068 145.822C76.6388 145.978 76.7048 146.188 76.7048 146.452C76.7048 146.824 76.4828 147.136 76.0388 147.388C75.6308 147.616 75.1688 147.802 74.6528 147.946C74.1368 148.078 73.6448 148.144 73.1768 148.144C71.7608 148.144 70.6388 147.736 69.8108 146.92C68.9828 146.104 68.5688 144.988 68.5688 143.572C68.5688 142.672 68.7488 141.874 69.1088 141.178C69.4688 140.482 69.9728 139.942 70.6208 139.558C71.2808 139.174 72.0248 138.982 72.8528 138.982C73.6448 138.982 74.3348 139.156 74.9228 139.504C75.5108 139.852 75.9668 140.344 76.2908 140.98C76.6148 141.616 76.7768 142.366 76.7768 143.23C76.7768 143.746 76.5488 144.004 76.0928 144.004H70.7828C70.8548 144.832 71.0888 145.444 71.4848 145.84C71.8808 146.224 72.4568 146.416 73.2128 146.416C73.5968 146.416 73.9328 146.368 74.2208 146.272C74.5208 146.176 74.8568 146.044 75.2288 145.876C75.5888 145.684 75.8528 145.588 76.0208 145.588ZM72.9068 140.566C72.2948 140.566 71.8028 140.758 71.4308 141.142C71.0708 141.526 70.8548 142.078 70.7828 142.798H74.8508C74.8268 142.066 74.6468 141.514 74.3108 141.142C73.9748 140.758 73.5068 140.566 72.9068 140.566ZM83.5313 139.018C83.8433 138.994 84.0893 139.06 84.2693 139.216C84.4493 139.372 84.5393 139.606 84.5393 139.918C84.5393 140.242 84.4613 140.482 84.3053 140.638C84.1493 140.794 83.8673 140.896 83.4593 140.944L82.9193 140.998C82.2113 141.07 81.6893 141.31 81.3533 141.718C81.0293 142.126 80.8673 142.636 80.8673 143.248V147.028C80.8673 147.376 80.7593 147.646 80.5433 147.838C80.3273 148.018 80.0573 148.108 79.7333 148.108C79.4093 148.108 79.1393 148.018 78.9233 147.838C78.7193 147.646 78.6173 147.376 78.6173 147.028V140.062C78.6173 139.726 78.7193 139.468 78.9233 139.288C79.1393 139.108 79.4033 139.018 79.7153 139.018C80.0273 139.018 80.2793 139.108 80.4713 139.288C80.6633 139.456 80.7593 139.702 80.7593 140.026V140.746C80.9873 140.218 81.3233 139.81 81.7673 139.522C82.2233 139.234 82.7273 139.072 83.2793 139.036L83.5313 139.018ZM89.2887 138.982C90.5127 138.982 91.4187 139.288 92.0067 139.9C92.6067 140.5 92.9067 141.418 92.9067 142.654V147.046C92.9067 147.37 92.8107 147.628 92.6187 147.82C92.4267 148 92.1627 148.09 91.8267 148.09C91.5147 148.09 91.2567 147.994 91.0527 147.802C90.8607 147.61 90.7647 147.358 90.7647 147.046V146.65C90.5607 147.118 90.2367 147.484 89.7927 147.748C89.3607 148.012 88.8567 148.144 88.2807 148.144C87.6927 148.144 87.1587 148.024 86.6787 147.784C86.1987 147.544 85.8207 147.214 85.5447 146.794C85.2687 146.374 85.1307 145.906 85.1307 145.39C85.1307 144.742 85.2927 144.232 85.6167 143.86C85.9527 143.488 86.4927 143.218 87.2367 143.05C87.9807 142.882 89.0067 142.798 90.3147 142.798H90.7647V142.384C90.7647 141.796 90.6387 141.37 90.3867 141.106C90.1347 140.83 89.7267 140.692 89.1627 140.692C88.8147 140.692 88.4607 140.746 88.1007 140.854C87.7407 140.95 87.3147 141.094 86.8227 141.286C86.5107 141.442 86.2827 141.52 86.1387 141.52C85.9227 141.52 85.7427 141.442 85.5987 141.286C85.4667 141.13 85.4007 140.926 85.4007 140.674C85.4007 140.47 85.4487 140.296 85.5447 140.152C85.6527 139.996 85.8267 139.852 86.0667 139.72C86.4867 139.492 86.9847 139.312 87.5607 139.18C88.1487 139.048 88.7247 138.982 89.2887 138.982ZM88.7307 146.524C89.3307 146.524 89.8167 146.326 90.1887 145.93C90.5727 145.522 90.7647 145 90.7647 144.364V143.986H90.4407C89.6367 143.986 89.0127 144.022 88.5687 144.094C88.1247 144.166 87.8067 144.292 87.6147 144.472C87.4227 144.652 87.3267 144.898 87.3267 145.21C87.3267 145.594 87.4587 145.912 87.7227 146.164C87.9987 146.404 88.3347 146.524 88.7307 146.524ZM107.091 139.684C107.175 139.468 107.295 139.306 107.451 139.198C107.619 139.09 107.799 139.036 107.991 139.036C108.267 139.036 108.513 139.132 108.729 139.324C108.957 139.504 109.071 139.732 109.071 140.008C109.071 140.164 109.041 140.302 108.981 140.422L106.011 147.388C105.915 147.616 105.765 147.79 105.561 147.91C105.369 148.03 105.153 148.09 104.913 148.09C104.685 148.09 104.469 148.03 104.265 147.91C104.073 147.79 103.929 147.616 103.833 147.388L101.691 142.24L99.6214 147.388C99.5254 147.616 99.3754 147.79 99.1714 147.91C98.9794 148.03 98.7634 148.09 98.5234 148.09C98.2954 148.09 98.0794 148.03 97.8754 147.91C97.6714 147.79 97.5214 147.616 97.4254 147.388L94.4734 140.422C94.4134 140.266 94.3834 140.134 94.3834 140.026C94.3834 139.75 94.5034 139.516 94.7434 139.324C94.9834 139.12 95.2474 139.018 95.5354 139.018C95.7394 139.018 95.9254 139.072 96.0934 139.18C96.2614 139.288 96.3874 139.45 96.4714 139.666L98.5954 145.156L100.773 139.72C100.869 139.492 101.007 139.324 101.187 139.216C101.367 139.096 101.565 139.036 101.781 139.036C101.997 139.036 102.195 139.096 102.375 139.216C102.555 139.324 102.693 139.492 102.789 139.72L104.985 145.174L107.091 139.684ZM114.302 138.982C115.526 138.982 116.432 139.288 117.02 139.9C117.62 140.5 117.92 141.418 117.92 142.654V147.046C117.92 147.37 117.824 147.628 117.632 147.82C117.44 148 117.176 148.09 116.84 148.09C116.528 148.09 116.27 147.994 116.066 147.802C115.874 147.61 115.778 147.358 115.778 147.046V146.65C115.574 147.118 115.25 147.484 114.806 147.748C114.374 148.012 113.87 148.144 113.294 148.144C112.706 148.144 112.172 148.024 111.692 147.784C111.212 147.544 110.834 147.214 110.558 146.794C110.282 146.374 110.144 145.906 110.144 145.39C110.144 144.742 110.306 144.232 110.63 143.86C110.966 143.488 111.506 143.218 112.25 143.05C112.994 142.882 114.02 142.798 115.328 142.798H115.778V142.384C115.778 141.796 115.652 141.37 115.4 141.106C115.148 140.83 114.74 140.692 114.176 140.692C113.828 140.692 113.474 140.746 113.114 140.854C112.754 140.95 112.328 141.094 111.836 141.286C111.524 141.442 111.296 141.52 111.152 141.52C110.936 141.52 110.756 141.442 110.612 141.286C110.48 141.13 110.414 140.926 110.414 140.674C110.414 140.47 110.462 140.296 110.558 140.152C110.666 139.996 110.84 139.852 111.08 139.72C111.5 139.492 111.998 139.312 112.574 139.18C113.162 139.048 113.738 138.982 114.302 138.982ZM113.744 146.524C114.344 146.524 114.83 146.326 115.202 145.93C115.586 145.522 115.778 145 115.778 144.364V143.986H115.454C114.65 143.986 114.026 144.022 113.582 144.094C113.138 144.166 112.82 144.292 112.628 144.472C112.436 144.652 112.34 144.898 112.34 145.21C112.34 145.594 112.472 145.912 112.736 146.164C113.012 146.404 113.348 146.524 113.744 146.524ZM124.779 146.434C125.379 146.47 125.679 146.74 125.679 147.244C125.679 147.532 125.559 147.754 125.319 147.91C125.091 148.054 124.761 148.114 124.329 148.09L123.843 148.054C121.827 147.91 120.819 146.83 120.819 144.814V140.89H119.919C119.595 140.89 119.343 140.818 119.163 140.674C118.995 140.53 118.911 140.32 118.911 140.044C118.911 139.768 118.995 139.558 119.163 139.414C119.343 139.27 119.595 139.198 119.919 139.198H120.819V137.542C120.819 137.218 120.921 136.96 121.125 136.768C121.329 136.576 121.605 136.48 121.953 136.48C122.289 136.48 122.559 136.576 122.763 136.768C122.967 136.96 123.069 137.218 123.069 137.542V139.198H124.599C124.923 139.198 125.169 139.27 125.337 139.414C125.517 139.558 125.607 139.768 125.607 140.044C125.607 140.32 125.517 140.53 125.337 140.674C125.169 140.818 124.923 140.89 124.599 140.89H123.069V144.976C123.069 145.864 123.477 146.338 124.293 146.398L124.779 146.434Z" fill="#110F14"/>
<rect x="52" y="20" width="80" height="80" rx="40" fill="#DDF1FF"/>
<path d="M73.7144 55.5914L77.1429 66.0171H106.857L110.286 55.5914C98.0944 50.4429 85.9058 50.4429 73.7144 55.5914Z" fill="#1F78F0"/>
<path d="M81.8226 66.0172H85.9026L83.2197 52.6257C81.9254 52.8886 80.6283 53.2086 79.334 53.5857L81.8226 66.0172Z" fill="#91BEFF"/>
<path d="M77.1431 66.0172H106.857V68.2543H77.1431V66.0172Z" fill="#CCCCCC"/>
<path d="M97.2486 57.14H93.8V53.6914H90.2V57.14H86.7515V60.7429H90.2V64.1886H93.8V60.7429H97.2486V57.14Z" fill="#91BEFF"/>
<path d="M90.2002 53.6914H93.8031V54.1029H90.2002V53.6914Z" fill="#F37885"/>
<path d="M93.7998 57.14H97.2484V57.5514H93.7998V57.14Z" fill="#F37885"/>
<path d="M86.7515 57.14H90.2V57.5514H86.7515V57.14Z" fill="#F37885"/>
<path d="M90.2002 63.7772H93.8031V64.1886H90.2002V63.7772Z" fill="#B43E4A"/>
<path d="M93.7998 60.3315H97.2484V60.7429H93.7998V60.3315Z" fill="#B43E4A"/>
<path d="M86.7515 60.3315H90.2V60.7429H86.7515V60.3315Z" fill="#B43E4A"/>
<path d="M93.8001 64.4743H90.2001C90.043 64.4743 89.9144 64.3457 89.9144 64.1886V61.0286H86.7515C86.5944 61.0286 86.4658 60.9 86.4658 60.7429V57.14C86.4658 56.9829 86.5944 56.8543 86.7515 56.8543H89.9144V53.6914C89.9144 53.5343 90.043 53.4057 90.2001 53.4057H93.8001C93.9572 53.4057 94.0858 53.5343 94.0858 53.6914V56.8543H97.2487C97.4058 56.8543 97.5344 56.9829 97.5344 57.14V60.7429C97.5344 60.9 97.4058 61.0286 97.2487 61.0286H94.0858V64.1914C94.0858 64.3457 93.9601 64.4743 93.8001 64.4743ZM90.4858 63.9029H93.5144V60.7429C93.5144 60.5857 93.643 60.4572 93.8001 60.4572H96.9629V57.4257H93.8001C93.643 57.4257 93.5144 57.2972 93.5144 57.14V53.9772H90.4858V57.14C90.4858 57.2972 90.3572 57.4257 90.2001 57.4257H87.0372V60.4572H90.2001C90.3572 60.4572 90.4858 60.5857 90.4858 60.7429V63.9029Z" fill="#91BEFF"/>
<path d="M89.6943 51.7915C94.0286 52.0172 98.3629 52.8943 102.697 54.4229C104.389 55.02 105.3 56.8543 104.74 58.5572L103.031 63.7543C102.589 65.1029 101.329 66.0143 99.9086 66.0143H106.857L110.286 55.5886C103.423 52.6943 96.5572 51.4257 89.6943 51.7915Z" fill="#91BEFF"/>
<path d="M106.857 66.3028H77.1428C77.02 66.3028 76.9114 66.2228 76.8714 66.1057L73.4428 55.68C73.3971 55.54 73.4657 55.3857 73.6028 55.3286C85.8114 50.1743 98.1885 50.1743 110.397 55.3286C110.534 55.3857 110.603 55.54 110.557 55.68L107.129 66.1057C107.089 66.2228 106.98 66.3028 106.857 66.3028ZM77.3485 65.7314H106.649L109.931 55.7543C98.0314 50.7971 85.9685 50.7971 74.0685 55.7543L77.3485 65.7314Z" fill="#91BEFF"/>
<path d="M77.1431 67.7H106.857V68.2543H77.1431V67.7Z" fill="#B3B3B3"/>
<path d="M77.1431 66.0172H106.857V66.5714H77.1431V66.0172Z" fill="#DDDDDD"/>
<path d="M106.857 68.5372H77.1426C76.9855 68.5372 76.8569 68.4086 76.8569 68.2514V66.0143C76.8569 65.8571 76.9855 65.7286 77.1426 65.7286H106.857C107.014 65.7286 107.143 65.8571 107.143 66.0143V68.2514C107.143 68.4086 107.014 68.5372 106.857 68.5372ZM77.4284 67.9657H106.571V66.3H77.4284V67.9657Z" fill="#231F20"/>
<path d="M77.1426 66.0172H106.857V68.2543H77.1426V66.0172Z" fill="#91BEFF"/>
<path d="M106.857 68.5372H77.1426C76.9855 68.5372 76.8569 68.4086 76.8569 68.2514V66.0143C76.8569 65.8571 76.9855 65.7286 77.1426 65.7286H106.857C107.014 65.7286 107.143 65.8571 107.143 66.0143V68.2514C107.143 68.4086 107.014 68.5372 106.857 68.5372ZM77.4284 67.9657H106.571V66.3H77.4284V67.9657Z" fill="#91BEFF"/>
</svg>
