<svg width="183" height="175" viewBox="0 0 183 175" fill="none" xmlns="http://www.w3.org/2000/svg">
<rect width="183" height="175" rx="16" fill="#FBFBFB"/>
<rect x="52" y="20" width="80" height="80" rx="40" fill="#E4F9F4"/>
<g clip-path="url(#clip0_413_504)">
<path d="M77.5643 55.0985L77.1562 68.4375L84.2158 79.9222C84.699 79.9734 85.1844 80 85.6698 80C87.6346 80 89.5994 79.5803 91.4166 78.7412L91.6094 64.7656L83.4932 49.1706L77.5643 55.0985Z" fill="#25BDA7"/>
<path d="M84.2155 79.9222C84.6987 79.9734 85.1841 80 85.6695 80C87.6343 80 89.5991 79.5803 91.4163 78.7412L91.6091 64.7656L90.1116 61.8881L79.5947 72.405L84.2155 79.9222Z" fill="#9DE3D7"/>
<path d="M91.4166 78.7412C92.8384 78.0848 94.1699 77.1716 95.3403 76.0014L102.043 69.3L90.6719 64.5312L87.8691 65.5022L91.4166 78.7412Z" fill="#25BDA7"/>
<path d="M75.9987 56.6634C70.6664 61.9949 70.6664 70.6699 75.9987 76.0014C78.2954 78.2976 81.2123 79.604 84.2153 79.9223L77.5638 55.0985L75.9987 56.6634Z" fill="#9DE3D7"/>
<path d="M75.9988 76.0014C78.2955 78.2976 81.2124 79.604 84.2154 79.9223L81.6503 70.3494L75.9985 76.0012C75.9987 76.0012 75.9988 76.0012 75.9988 76.0014Z" fill="#25BDA7"/>
<path d="M108 44.0051C105.417 41.4223 101.983 40 98.3296 40C94.6766 40 91.2421 41.4223 88.6591 44.0051L83.4927 49.1706L87.8687 65.5022L102.042 69.3L108 63.3431C113.333 58.0116 113.333 49.3366 108 44.0051Z" fill="#027D6A"/>
<path d="M87.8689 65.5022L102.043 69.3L108.001 63.3431C113.333 58.0115 113.333 49.3365 108.001 44.0051C108 44.0041 107.999 44.0032 107.998 44.0022L87.5791 64.4206L87.8689 65.5022Z" fill="#027D6A"/>
<path d="M98.3273 62.652C96.0266 62.652 93.7259 61.7763 91.9745 60.0247C88.4714 56.5218 88.4714 50.8219 91.9745 47.319C95.4774 43.8159 101.177 43.8159 104.68 47.319C108.183 50.8219 108.183 56.5218 104.68 60.0247C102.929 61.7763 100.628 62.652 98.3273 62.652Z" fill="#FFD5B2"/>
<path d="M98.3275 62.6521C100.628 62.6521 102.929 61.7764 104.68 60.0248C108.183 56.5218 108.183 50.822 104.68 47.319L91.9746 60.0248C93.7261 61.7764 96.0268 62.6521 98.3275 62.6521Z" fill="#FAC394"/>
<path d="M93.9081 60.8257C93.1777 60.8257 92.4911 60.5412 91.9747 60.0248C91.4582 59.5084 91.1738 58.8217 91.1738 58.0913C91.1738 57.3609 91.4583 56.6743 91.9747 56.1578C92.4911 55.6413 93.1777 55.3569 93.9081 55.3569C94.6386 55.3569 95.3252 55.6414 95.8416 56.1578C96.358 56.6742 96.6425 57.3609 96.6425 58.0913C96.6425 58.8217 96.358 59.5083 95.8416 60.0248C95.3252 60.5412 94.6385 60.8257 93.9081 60.8257Z" fill="#9DDFF6"/>
<path d="M100.813 56.2249C101.461 56.2249 101.985 55.7002 101.985 55.053C101.985 54.4058 101.461 53.8811 100.813 53.8811C100.166 53.8811 99.6416 54.4058 99.6416 55.053C99.6416 55.7002 100.166 56.2249 100.813 56.2249Z" fill="#453D81"/>
<path d="M96.9468 52.3578C97.594 52.3578 98.1187 51.8332 98.1187 51.1859C98.1187 50.5387 97.594 50.0141 96.9468 50.0141C96.2996 50.0141 95.7749 50.5387 95.7749 51.1859C95.7749 51.8332 96.2996 52.3578 96.9468 52.3578Z" fill="#6B61B1"/>
<path d="M93.9081 60.8257C94.6385 60.8257 95.3252 60.5412 95.8416 60.0248C96.358 59.5084 96.6424 58.8217 96.6424 58.0913C96.6424 57.3609 96.358 56.6743 95.8416 56.1578L91.9746 60.0248C92.491 60.5412 93.1777 60.8257 93.9081 60.8257Z" fill="#6BA7FF"/>
</g>
<path d="M76.221 141.448C76.953 141.652 77.517 142.024 77.913 142.564C78.321 143.104 78.525 143.764 78.525 144.544C78.525 145.624 78.135 146.47 77.355 147.082C76.587 147.694 75.525 148 74.169 148H69.525C69.177 148 68.901 147.904 68.697 147.712C68.505 147.52 68.409 147.25 68.409 146.902V136.408C68.409 136.06 68.505 135.79 68.697 135.598C68.901 135.406 69.177 135.31 69.525 135.31H73.989C75.309 135.31 76.341 135.604 77.085 136.192C77.841 136.768 78.219 137.578 78.219 138.622C78.219 139.294 78.039 139.876 77.679 140.368C77.331 140.86 76.845 141.22 76.221 141.448ZM70.677 140.656H73.611C75.207 140.656 76.005 140.062 76.005 138.874C76.005 138.274 75.807 137.83 75.411 137.542C75.015 137.254 74.415 137.11 73.611 137.11H70.677V140.656ZM73.917 146.2C74.757 146.2 75.369 146.05 75.753 145.75C76.137 145.45 76.329 144.982 76.329 144.346C76.329 143.71 76.131 143.236 75.735 142.924C75.351 142.612 74.745 142.456 73.917 142.456H70.677V146.2H73.917ZM81.6141 148.108C81.2901 148.108 81.0201 148.018 80.8041 147.838C80.6001 147.646 80.4981 147.376 80.4981 147.028V140.08C80.4981 139.732 80.6001 139.468 80.8041 139.288C81.0201 139.108 81.2901 139.018 81.6141 139.018C81.9381 139.018 82.2081 139.108 82.4241 139.288C82.6401 139.468 82.7481 139.732 82.7481 140.08V147.028C82.7481 147.376 82.6401 147.646 82.4241 147.838C82.2081 148.018 81.9381 148.108 81.6141 148.108ZM81.6141 137.416C81.2061 137.416 80.8821 137.308 80.6421 137.092C80.4021 136.864 80.2821 136.57 80.2821 136.21C80.2821 135.85 80.4021 135.562 80.6421 135.346C80.8821 135.13 81.2061 135.022 81.6141 135.022C82.0101 135.022 82.3281 135.13 82.5681 135.346C82.8201 135.562 82.9461 135.85 82.9461 136.21C82.9461 136.57 82.8261 136.864 82.5861 137.092C82.3461 137.308 82.0221 137.416 81.6141 137.416ZM92.4124 135.22C92.7484 135.22 93.0244 135.316 93.2404 135.508C93.4564 135.7 93.5644 135.952 93.5644 136.264V147.028C93.5644 147.352 93.4624 147.61 93.2584 147.802C93.0544 147.994 92.7844 148.09 92.4484 148.09C92.1124 148.09 91.8424 147.994 91.6384 147.802C91.4344 147.61 91.3324 147.352 91.3324 147.028V146.578C91.0684 147.07 90.6844 147.454 90.1804 147.73C89.6884 148.006 89.1244 148.144 88.4884 148.144C87.7324 148.144 87.0544 147.952 86.4544 147.568C85.8664 147.184 85.4044 146.644 85.0684 145.948C84.7444 145.24 84.5824 144.43 84.5824 143.518C84.5824 142.606 84.7444 141.808 85.0684 141.124C85.4044 140.44 85.8664 139.912 86.4544 139.54C87.0424 139.168 87.7204 138.982 88.4884 138.982C89.1244 138.982 89.6884 139.114 90.1804 139.378C90.6724 139.642 91.0504 140.014 91.3144 140.494V136.228C91.3144 135.928 91.4104 135.688 91.6024 135.508C91.8064 135.316 92.0764 135.22 92.4124 135.22ZM89.0824 146.398C89.8024 146.398 90.3544 146.152 90.7384 145.66C91.1344 145.168 91.3324 144.466 91.3324 143.554C91.3324 142.642 91.1344 141.946 90.7384 141.466C90.3544 140.974 89.8084 140.728 89.1004 140.728C88.3804 140.728 87.8224 140.968 87.4264 141.448C87.0304 141.928 86.8324 142.618 86.8324 143.518C86.8324 144.43 87.0304 145.138 87.4264 145.642C87.8224 146.146 88.3744 146.398 89.0824 146.398ZM99.695 138.982C100.919 138.982 101.825 139.288 102.413 139.9C103.013 140.5 103.313 141.418 103.313 142.654V147.046C103.313 147.37 103.217 147.628 103.025 147.82C102.833 148 102.569 148.09 102.233 148.09C101.921 148.09 101.663 147.994 101.459 147.802C101.267 147.61 101.171 147.358 101.171 147.046V146.65C100.967 147.118 100.643 147.484 100.199 147.748C99.767 148.012 99.263 148.144 98.687 148.144C98.099 148.144 97.565 148.024 97.085 147.784C96.605 147.544 96.227 147.214 95.951 146.794C95.675 146.374 95.537 145.906 95.537 145.39C95.537 144.742 95.699 144.232 96.023 143.86C96.359 143.488 96.899 143.218 97.643 143.05C98.387 142.882 99.413 142.798 100.721 142.798H101.171V142.384C101.171 141.796 101.045 141.37 100.793 141.106C100.541 140.83 100.133 140.692 99.569 140.692C99.221 140.692 98.867 140.746 98.507 140.854C98.147 140.95 97.721 141.094 97.229 141.286C96.917 141.442 96.689 141.52 96.545 141.52C96.329 141.52 96.149 141.442 96.005 141.286C95.873 141.13 95.807 140.926 95.807 140.674C95.807 140.47 95.855 140.296 95.951 140.152C96.059 139.996 96.233 139.852 96.473 139.72C96.893 139.492 97.391 139.312 97.967 139.18C98.555 139.048 99.131 138.982 99.695 138.982ZM99.137 146.524C99.737 146.524 100.223 146.326 100.595 145.93C100.979 145.522 101.171 145 101.171 144.364V143.986H100.847C100.043 143.986 99.419 144.022 98.975 144.094C98.531 144.166 98.213 144.292 98.021 144.472C97.829 144.652 97.733 144.898 97.733 145.21C97.733 145.594 97.865 145.912 98.129 146.164C98.405 146.404 98.741 146.524 99.137 146.524ZM110.712 138.982C111.768 138.982 112.554 139.282 113.07 139.882C113.586 140.482 113.844 141.388 113.844 142.6V147.028C113.844 147.364 113.742 147.628 113.538 147.82C113.346 148.012 113.076 148.108 112.728 148.108C112.38 148.108 112.104 148.012 111.9 147.82C111.696 147.628 111.594 147.364 111.594 147.028V142.726C111.594 142.042 111.462 141.544 111.198 141.232C110.946 140.92 110.544 140.764 109.992 140.764C109.344 140.764 108.822 140.968 108.426 141.376C108.042 141.784 107.85 142.33 107.85 143.014V147.028C107.85 147.364 107.748 147.628 107.544 147.82C107.34 148.012 107.064 148.108 106.716 148.108C106.368 148.108 106.092 148.012 105.888 147.82C105.696 147.628 105.6 147.364 105.6 147.028V140.062C105.6 139.75 105.702 139.498 105.906 139.306C106.11 139.114 106.386 139.018 106.734 139.018C107.046 139.018 107.298 139.114 107.49 139.306C107.694 139.486 107.796 139.726 107.796 140.026V140.512C108.096 140.02 108.498 139.642 109.002 139.378C109.506 139.114 110.076 138.982 110.712 138.982Z" fill="#110F14"/>
<defs>
<clipPath id="clip0_413_504">
<rect width="40" height="40" fill="white" transform="translate(72 40)"/>
</clipPath>
</defs>
</svg>
