<svg width="183" height="175" viewBox="0 0 183 175" fill="none" xmlns="http://www.w3.org/2000/svg">
<rect width="183" height="175" rx="16" fill="#FBFBFB"/>
<rect x="52" y="20" width="80" height="80" rx="40" fill="#FFF2D7"/>
<path d="M108.934 53.5246H98.4754V43.0665C98.4754 41.373 97.1025 40 95.409 40H88.5911C86.8975 40 85.5246 41.373 85.5246 43.0665V53.5246H75.0665C73.373 53.5246 72 54.8975 72 56.5911V63.409C72 65.1025 73.373 66.4754 75.0665 66.4754H85.5246V76.9334C85.5246 78.627 86.8975 79.9999 88.591 79.9999H95.4089C97.1025 79.9999 98.4754 78.6269 98.4754 76.9334V66.4755H108.933C110.627 66.4755 112 65.1025 112 63.409V56.5912C112 54.8975 110.627 53.5246 108.934 53.5246Z" fill="#FBD169"/>
<path d="M96.5367 76.9335C96.5367 78.6271 95.1637 80 93.4702 80H95.4085C97.1021 80 98.475 78.627 98.475 76.9335V66.4755H96.5367V76.9335Z" fill="#ED994F"/>
<path d="M96.5368 43.0665V53.5246H98.4751V43.0665C98.4751 41.373 97.1021 40 95.4085 40H93.4702C95.1638 40 96.5368 41.373 96.5368 43.0665Z" fill="#ED994F"/>
<path d="M108.933 53.5245H106.995C108.689 53.5245 110.062 54.8975 110.062 56.591V63.4089C110.062 65.1025 108.689 66.4754 106.995 66.4754H108.933C110.627 66.4754 112 65.1024 112 63.4089V56.591C112 54.8975 110.627 53.5245 108.933 53.5245Z" fill="#ED994F"/>
<path d="M91.9996 70.8783C98.0076 70.8783 102.878 66.0078 102.878 59.9998C102.878 53.9918 98.0076 49.1213 91.9996 49.1213C85.9915 49.1213 81.1211 53.9918 81.1211 59.9998C81.1211 66.0078 85.9915 70.8783 91.9996 70.8783Z" fill="#FE9901"/>
<path d="M91.9996 70.8783C98.0076 70.8783 102.878 66.0078 102.878 59.9998C102.878 53.9918 98.0076 49.1213 91.9996 49.1213C85.9915 49.1213 81.1211 53.9918 81.1211 59.9998C81.1211 66.0078 85.9915 70.8783 91.9996 70.8783Z" fill="#FE9901"/>
<path d="M91.9996 72.2919C98.7883 72.2919 104.292 66.7885 104.292 59.9998C104.292 53.2111 98.7883 47.7078 91.9996 47.7078C85.2109 47.7078 79.7075 53.2111 79.7075 59.9998C79.7075 66.7885 85.2109 72.2919 91.9996 72.2919Z" fill="white"/>
<path d="M91.9996 70.8783C98.0076 70.8783 102.878 66.0078 102.878 59.9998C102.878 53.9918 98.0076 49.1213 91.9996 49.1213C85.9915 49.1213 81.1211 53.9918 81.1211 59.9998C81.1211 66.0078 85.9915 70.8783 91.9996 70.8783Z" fill="#FE9901"/>
<path d="M91.9997 49.1212C91.6714 49.1212 91.3467 49.1366 91.0259 49.165C96.5778 49.6576 100.931 54.3201 100.931 60C100.931 65.68 96.5778 70.3424 91.0259 70.835C91.3468 70.8634 91.6714 70.8788 91.9997 70.8788C98.008 70.8788 102.879 66.0082 102.879 59.9999C102.879 53.9916 98.008 49.1212 91.9997 49.1212Z" fill="#ED8803"/>
<path d="M92.6209 59.8849C92.6164 59.8804 92.5988 59.8628 92.5943 59.8582C90.5684 57.8324 84.3083 60.0588 85.0033 61.9706C85.3067 62.8054 85.9363 63.3648 86.5493 63.73C87.0005 63.9989 87.4154 64.324 87.7842 64.695C88.1552 65.0638 88.4803 65.4787 88.7491 65.9299C89.1144 66.5429 89.6737 67.1725 90.5086 67.4759C92.4204 68.1708 94.6468 61.9106 92.6209 59.8849Z" fill="white"/>
<path d="M91.2067 53.8789C90.7797 55.0052 91.0699 57.1429 92.196 57.5699C93.3223 57.9968 94.858 56.5514 95.2849 55.4252C95.7119 54.2989 95.145 53.0399 94.0189 52.613C92.8928 52.1859 91.6337 52.7528 91.2067 53.8789Z" fill="white"/>
<path d="M85.3044 55.5196C85.5085 56.5307 86.6371 57.9534 87.6481 57.7491C88.6591 57.545 89.1696 55.7911 88.9654 54.7802C88.7613 53.7692 87.7761 53.1152 86.7651 53.3194C85.7542 53.5236 85.1003 54.5087 85.3044 55.5196Z" fill="white"/>
<path d="M98.6001 61.2725C97.4738 61.6994 95.3361 61.4093 94.9092 60.2831C94.4822 59.1568 95.9277 57.6211 97.0538 57.1942C98.1801 56.7672 99.4391 57.3341 99.866 58.4602C100.293 59.5864 99.7263 60.8455 98.6001 61.2725Z" fill="white"/>
<path d="M96.9592 67.1748C95.9482 66.9707 94.5254 65.8422 94.7297 64.8311C94.934 63.8201 96.6877 63.3096 97.6986 63.5138C98.7097 63.7179 99.3636 64.7031 99.1594 65.7141C98.9552 66.725 97.9701 67.379 96.9592 67.1748Z" fill="white"/>
<path d="M33.8492 148C33.5012 148 33.2252 147.904 33.0212 147.712C32.8292 147.52 32.7332 147.25 32.7332 146.902V136.408C32.7332 136.06 32.8292 135.79 33.0212 135.598C33.2252 135.406 33.5012 135.31 33.8492 135.31H37.4132C39.4892 135.31 41.0972 135.868 42.2372 136.984C43.3892 138.088 43.9652 139.642 43.9652 141.646C43.9652 143.662 43.3892 145.228 42.2372 146.344C41.0972 147.448 39.4892 148 37.4132 148H33.8492ZM37.2692 146.11C40.1852 146.11 41.6432 144.622 41.6432 141.646C41.6432 138.682 40.1852 137.2 37.2692 137.2H35.0552V146.11H37.2692ZM50.1195 148.144C49.2195 148.144 48.4275 147.958 47.7435 147.586C47.0715 147.214 46.5495 146.68 46.1775 145.984C45.8055 145.288 45.6195 144.478 45.6195 143.554C45.6195 142.63 45.8055 141.826 46.1775 141.142C46.5495 140.446 47.0715 139.912 47.7435 139.54C48.4275 139.168 49.2195 138.982 50.1195 138.982C51.0195 138.982 51.8055 139.168 52.4775 139.54C53.1615 139.912 53.6835 140.446 54.0435 141.142C54.4155 141.826 54.6015 142.63 54.6015 143.554C54.6015 144.478 54.4155 145.288 54.0435 145.984C53.6835 146.68 53.1615 147.214 52.4775 147.586C51.8055 147.958 51.0195 148.144 50.1195 148.144ZM50.1015 146.398C50.8335 146.398 51.3915 146.158 51.7755 145.678C52.1595 145.198 52.3515 144.49 52.3515 143.554C52.3515 142.63 52.1595 141.928 51.7755 141.448C51.3915 140.956 50.8395 140.71 50.1195 140.71C49.3995 140.71 48.8415 140.956 48.4455 141.448C48.0615 141.928 47.8695 142.63 47.8695 143.554C47.8695 144.49 48.0615 145.198 48.4455 145.678C48.8295 146.158 49.3815 146.398 50.1015 146.398ZM64.2891 146.254C64.5291 146.482 64.6491 146.74 64.6491 147.028C64.6491 147.304 64.5471 147.55 64.3431 147.766C64.1511 147.982 63.9231 148.09 63.6591 148.09C63.3951 148.09 63.1491 147.982 62.9211 147.766L58.7091 143.95V147.028C58.7091 147.376 58.6011 147.64 58.3851 147.82C58.1691 148 57.8991 148.09 57.5751 148.09C57.2511 148.09 56.9811 148 56.7651 147.82C56.5611 147.64 56.4591 147.376 56.4591 147.028V136.282C56.4591 135.934 56.5611 135.67 56.7651 135.49C56.9811 135.31 57.2511 135.22 57.5751 135.22C57.8991 135.22 58.1691 135.31 58.3851 135.49C58.6011 135.67 58.7091 135.934 58.7091 136.282V143.05L62.5611 139.36C62.7771 139.144 63.0231 139.036 63.2991 139.036C63.5751 139.036 63.8151 139.138 64.0191 139.342C64.2231 139.546 64.3251 139.786 64.3251 140.062C64.3251 140.338 64.2111 140.59 63.9831 140.818L61.1571 143.446L64.2891 146.254ZM70.6463 146.434C71.2463 146.47 71.5463 146.74 71.5463 147.244C71.5463 147.532 71.4263 147.754 71.1863 147.91C70.9583 148.054 70.6283 148.114 70.1963 148.09L69.7103 148.054C67.6943 147.91 66.6863 146.83 66.6863 144.814V140.89H65.7863C65.4623 140.89 65.2103 140.818 65.0303 140.674C64.8623 140.53 64.7783 140.32 64.7783 140.044C64.7783 139.768 64.8623 139.558 65.0303 139.414C65.2103 139.27 65.4623 139.198 65.7863 139.198H66.6863V137.542C66.6863 137.218 66.7883 136.96 66.9923 136.768C67.1963 136.576 67.4723 136.48 67.8203 136.48C68.1563 136.48 68.4263 136.576 68.6303 136.768C68.8343 136.96 68.9363 137.218 68.9363 137.542V139.198H70.4663C70.7903 139.198 71.0363 139.27 71.2043 139.414C71.3843 139.558 71.4743 139.768 71.4743 140.044C71.4743 140.32 71.3843 140.53 71.2043 140.674C71.0363 140.818 70.7903 140.89 70.4663 140.89H68.9363V144.976C68.9363 145.864 69.3443 146.338 70.1603 146.398L70.6463 146.434ZM79.6848 145.588C79.8888 145.588 80.0508 145.666 80.1708 145.822C80.3028 145.978 80.3688 146.188 80.3688 146.452C80.3688 146.824 80.1468 147.136 79.7028 147.388C79.2948 147.616 78.8328 147.802 78.3168 147.946C77.8008 148.078 77.3088 148.144 76.8408 148.144C75.4248 148.144 74.3028 147.736 73.4748 146.92C72.6468 146.104 72.2328 144.988 72.2328 143.572C72.2328 142.672 72.4128 141.874 72.7728 141.178C73.1328 140.482 73.6368 139.942 74.2848 139.558C74.9448 139.174 75.6888 138.982 76.5168 138.982C77.3088 138.982 77.9988 139.156 78.5868 139.504C79.1748 139.852 79.6308 140.344 79.9548 140.98C80.2788 141.616 80.4408 142.366 80.4408 143.23C80.4408 143.746 80.2128 144.004 79.7568 144.004H74.4468C74.5188 144.832 74.7528 145.444 75.1488 145.84C75.5448 146.224 76.1208 146.416 76.8768 146.416C77.2608 146.416 77.5968 146.368 77.8848 146.272C78.1848 146.176 78.5208 146.044 78.8928 145.876C79.2528 145.684 79.5168 145.588 79.6848 145.588ZM76.5708 140.566C75.9588 140.566 75.4668 140.758 75.0948 141.142C74.7348 141.526 74.5188 142.078 74.4468 142.798H78.5148C78.4908 142.066 78.3108 141.514 77.9748 141.142C77.6388 140.758 77.1708 140.566 76.5708 140.566ZM87.1953 139.018C87.5073 138.994 87.7533 139.06 87.9333 139.216C88.1133 139.372 88.2033 139.606 88.2033 139.918C88.2033 140.242 88.1253 140.482 87.9693 140.638C87.8133 140.794 87.5313 140.896 87.1233 140.944L86.5833 140.998C85.8753 141.07 85.3533 141.31 85.0173 141.718C84.6933 142.126 84.5313 142.636 84.5313 143.248V147.028C84.5313 147.376 84.4233 147.646 84.2073 147.838C83.9913 148.018 83.7213 148.108 83.3973 148.108C83.0733 148.108 82.8033 148.018 82.5873 147.838C82.3833 147.646 82.2813 147.376 82.2813 147.028V140.062C82.2813 139.726 82.3833 139.468 82.5873 139.288C82.8033 139.108 83.0673 139.018 83.3793 139.018C83.6913 139.018 83.9433 139.108 84.1353 139.288C84.3273 139.456 84.4233 139.702 84.4233 140.026V140.746C84.6513 140.218 84.9873 139.81 85.4313 139.522C85.8873 139.234 86.3913 139.072 86.9433 139.036L87.1953 139.018ZM104.175 135.22C104.523 135.22 104.799 135.328 105.003 135.544C105.207 135.748 105.309 136.024 105.309 136.372V146.938C105.309 147.286 105.201 147.568 104.985 147.784C104.781 148 104.511 148.108 104.175 148.108C103.827 148.108 103.551 148 103.347 147.784C103.143 147.568 103.041 147.286 103.041 146.938V142.492H96.5427V146.938C96.5427 147.286 96.4347 147.568 96.2187 147.784C96.0147 148 95.7387 148.108 95.3907 148.108C95.0547 148.108 94.7787 148 94.5627 147.784C94.3587 147.568 94.2567 147.286 94.2567 146.938V136.372C94.2567 136.024 94.3587 135.748 94.5627 135.544C94.7667 135.328 95.0427 135.22 95.3907 135.22C95.7387 135.22 96.0147 135.328 96.2187 135.544C96.4347 135.748 96.5427 136.024 96.5427 136.372V140.62H103.041V136.372C103.041 136.024 103.143 135.748 103.347 135.544C103.551 135.328 103.827 135.22 104.175 135.22ZM114.806 145.588C115.01 145.588 115.172 145.666 115.292 145.822C115.424 145.978 115.49 146.188 115.49 146.452C115.49 146.824 115.268 147.136 114.824 147.388C114.416 147.616 113.954 147.802 113.438 147.946C112.922 148.078 112.43 148.144 111.962 148.144C110.546 148.144 109.424 147.736 108.596 146.92C107.768 146.104 107.354 144.988 107.354 143.572C107.354 142.672 107.534 141.874 107.894 141.178C108.254 140.482 108.758 139.942 109.406 139.558C110.066 139.174 110.81 138.982 111.638 138.982C112.43 138.982 113.12 139.156 113.708 139.504C114.296 139.852 114.752 140.344 115.076 140.98C115.4 141.616 115.562 142.366 115.562 143.23C115.562 143.746 115.334 144.004 114.878 144.004H109.568C109.64 144.832 109.874 145.444 110.27 145.84C110.666 146.224 111.242 146.416 111.998 146.416C112.382 146.416 112.718 146.368 113.006 146.272C113.306 146.176 113.642 146.044 114.014 145.876C114.374 145.684 114.638 145.588 114.806 145.588ZM111.692 140.566C111.08 140.566 110.588 140.758 110.216 141.142C109.856 141.526 109.64 142.078 109.568 142.798H113.636C113.612 142.066 113.432 141.514 113.096 141.142C112.76 140.758 112.292 140.566 111.692 140.566ZM129.16 139.684C129.244 139.468 129.364 139.306 129.52 139.198C129.688 139.09 129.868 139.036 130.06 139.036C130.336 139.036 130.582 139.132 130.798 139.324C131.026 139.504 131.14 139.732 131.14 140.008C131.14 140.164 131.11 140.302 131.05 140.422L128.08 147.388C127.984 147.616 127.834 147.79 127.63 147.91C127.438 148.03 127.222 148.09 126.982 148.09C126.754 148.09 126.538 148.03 126.334 147.91C126.142 147.79 125.998 147.616 125.902 147.388L123.76 142.24L121.69 147.388C121.594 147.616 121.444 147.79 121.24 147.91C121.048 148.03 120.832 148.09 120.592 148.09C120.364 148.09 120.148 148.03 119.944 147.91C119.74 147.79 119.59 147.616 119.494 147.388L116.542 140.422C116.482 140.266 116.452 140.134 116.452 140.026C116.452 139.75 116.572 139.516 116.812 139.324C117.052 139.12 117.316 139.018 117.604 139.018C117.808 139.018 117.994 139.072 118.162 139.18C118.33 139.288 118.456 139.45 118.54 139.666L120.664 145.156L122.842 139.72C122.938 139.492 123.076 139.324 123.256 139.216C123.436 139.096 123.634 139.036 123.85 139.036C124.066 139.036 124.264 139.096 124.444 139.216C124.624 139.324 124.762 139.492 124.858 139.72L127.054 145.174L129.16 139.684ZM136.371 138.982C137.595 138.982 138.501 139.288 139.089 139.9C139.689 140.5 139.989 141.418 139.989 142.654V147.046C139.989 147.37 139.893 147.628 139.701 147.82C139.509 148 139.245 148.09 138.909 148.09C138.597 148.09 138.339 147.994 138.135 147.802C137.943 147.61 137.847 147.358 137.847 147.046V146.65C137.643 147.118 137.319 147.484 136.875 147.748C136.443 148.012 135.939 148.144 135.363 148.144C134.775 148.144 134.241 148.024 133.761 147.784C133.281 147.544 132.903 147.214 132.627 146.794C132.351 146.374 132.213 145.906 132.213 145.39C132.213 144.742 132.375 144.232 132.699 143.86C133.035 143.488 133.575 143.218 134.319 143.05C135.063 142.882 136.089 142.798 137.397 142.798H137.847V142.384C137.847 141.796 137.721 141.37 137.469 141.106C137.217 140.83 136.809 140.692 136.245 140.692C135.897 140.692 135.543 140.746 135.183 140.854C134.823 140.95 134.397 141.094 133.905 141.286C133.593 141.442 133.365 141.52 133.221 141.52C133.005 141.52 132.825 141.442 132.681 141.286C132.549 141.13 132.483 140.926 132.483 140.674C132.483 140.47 132.531 140.296 132.627 140.152C132.735 139.996 132.909 139.852 133.149 139.72C133.569 139.492 134.067 139.312 134.643 139.18C135.231 139.048 135.807 138.982 136.371 138.982ZM135.813 146.524C136.413 146.524 136.899 146.326 137.271 145.93C137.655 145.522 137.847 145 137.847 144.364V143.986H137.523C136.719 143.986 136.095 144.022 135.651 144.094C135.207 144.166 134.889 144.292 134.697 144.472C134.505 144.652 134.409 144.898 134.409 145.21C134.409 145.594 134.541 145.912 134.805 146.164C135.081 146.404 135.417 146.524 135.813 146.524ZM147.387 138.982C148.443 138.982 149.229 139.282 149.745 139.882C150.261 140.482 150.519 141.388 150.519 142.6V147.028C150.519 147.364 150.417 147.628 150.213 147.82C150.021 148.012 149.751 148.108 149.403 148.108C149.055 148.108 148.779 148.012 148.575 147.82C148.371 147.628 148.269 147.364 148.269 147.028V142.726C148.269 142.042 148.137 141.544 147.873 141.232C147.621 140.92 147.219 140.764 146.667 140.764C146.019 140.764 145.497 140.968 145.101 141.376C144.717 141.784 144.525 142.33 144.525 143.014V147.028C144.525 147.364 144.423 147.628 144.219 147.82C144.015 148.012 143.739 148.108 143.391 148.108C143.043 148.108 142.767 148.012 142.563 147.82C142.371 147.628 142.275 147.364 142.275 147.028V140.062C142.275 139.75 142.377 139.498 142.581 139.306C142.785 139.114 143.061 139.018 143.409 139.018C143.721 139.018 143.973 139.114 144.165 139.306C144.369 139.486 144.471 139.726 144.471 140.026V140.512C144.771 140.02 145.173 139.642 145.677 139.378C146.181 139.114 146.751 138.982 147.387 138.982Z" fill="#110F14"/>
</svg>
