<svg width="183" height="175" viewBox="0 0 183 175" fill="none" xmlns="http://www.w3.org/2000/svg">
<rect width="183" height="175" rx="16" fill="#FBFBFB"/>
<rect x="52" y="20" width="80" height="80" rx="40" fill="#E9F2F2"/>
<path d="M92.0001 70.547C97.825 70.547 102.547 65.8249 102.547 60C102.547 54.1751 97.825 49.4531 92.0001 49.4531C86.1752 49.4531 81.4531 54.1751 81.4531 60C81.4531 65.8249 86.1752 70.547 92.0001 70.547Z" fill="#FFD9B3"/>
<path d="M99.4576 67.4578C103.576 63.3389 103.576 56.661 99.4576 52.5422L84.542 67.4578C88.6608 71.5766 95.3388 71.5766 99.4576 67.4578Z" fill="#FFBB99"/>
<path d="M89.9422 63.9677C89.4471 63.9088 88.9991 63.6787 88.66 63.3399C88.3213 63.0015 88.0914 62.5546 88.0331 62.0619C87.9369 61.2745 87.5897 60.5616 87.028 59.9999C85.6573 58.6291 83.427 58.6291 82.0563 59.9999C80.3184 61.7378 81.3166 63.7209 81.332 64.0387L72 73.3709L75.3146 76.6854L78.6291 80L87.9613 70.6679C88.3024 70.6844 90.383 71.5608 92 69.9436C93.3709 68.5729 93.3709 66.3426 92 64.9719C91.4384 64.4102 90.7254 64.063 89.9422 63.9677Z" fill="#F3F5F9"/>
<path d="M112 46.6291L108.685 43.3145L105.371 40L96.0386 49.3321C95.6974 49.3155 93.6169 48.4392 91.9998 50.0564C90.629 51.4271 90.629 53.6574 91.9998 55.0281C92.5615 55.5898 93.2744 55.937 94.0576 56.0323C94.5526 56.0912 95.0009 56.3212 95.34 56.6599C95.6789 56.9984 95.9085 57.4454 95.9667 57.938C96.0629 58.7254 96.4101 59.4384 96.9718 60C98.3425 61.3709 100.573 61.3709 101.943 60C103.681 58.2621 102.683 56.2791 102.668 55.9613L112 46.6291Z" fill="#F3F5F9"/>
<path d="M87.9616 70.6679C88.3028 70.6845 90.3833 71.5608 92.0003 69.9436C93.3712 68.5729 93.3712 66.3426 92.0003 64.9719C91.4387 64.4102 90.7257 64.0631 89.9425 63.9677C89.4474 63.9088 88.9994 63.6787 88.6603 63.3399L75.3149 76.6854L78.6295 80L87.9616 70.6679Z" fill="#D5D9D9"/>
<path d="M96.9716 60C98.3423 61.3709 100.573 61.3709 101.943 60C103.681 58.2621 102.683 56.2791 102.668 55.9613L112 46.6292L108.685 43.3145L95.3398 56.6599C95.6788 56.9984 95.9084 57.4454 95.9666 57.9381C96.0628 58.7254 96.41 59.4384 96.9716 60Z" fill="#D5D9D9"/>
<path d="M77.5469 56.7188H79.8906V52.2656H76.5312V50.0781H74.1875V54.6094H77.5469V56.7188Z" fill="#586666"/>
<path d="M88.6406 47.9688V45.625H86.5312V42.2656H82V44.6094H84.1875V47.9688H88.6406Z" fill="#586666"/>
<path d="M101.922 77.8125V75.4688H99.7344V72.1094H95.2812V74.4531H97.3906V77.8125H101.922Z" fill="#586666"/>
<path d="M109.656 70V65.4688H106.375V63.3594H104.031V67.8125H107.312V70H109.656Z" fill="#586666"/>
<path d="M45.5229 148.108C45.1749 148.108 44.8929 148 44.6769 147.784C44.4729 147.568 44.3709 147.286 44.3709 146.938V136.408C44.3709 136.06 44.4669 135.79 44.6589 135.598C44.8629 135.406 45.1389 135.31 45.4869 135.31H51.8049C52.5369 135.31 52.9029 135.622 52.9029 136.246C52.9029 136.858 52.5369 137.164 51.8049 137.164H46.6569V140.62H51.4449C52.1769 140.62 52.5429 140.932 52.5429 141.556C52.5429 142.168 52.1769 142.474 51.4449 142.474H46.6569V146.938C46.6569 147.286 46.5549 147.568 46.3509 147.784C46.1469 148 45.8709 148.108 45.5229 148.108ZM56.2049 148.108C55.8809 148.108 55.6109 148.018 55.3949 147.838C55.1909 147.646 55.0889 147.376 55.0889 147.028V140.08C55.0889 139.732 55.1909 139.468 55.3949 139.288C55.6109 139.108 55.8809 139.018 56.2049 139.018C56.5289 139.018 56.7989 139.108 57.0149 139.288C57.2309 139.468 57.3389 139.732 57.3389 140.08V147.028C57.3389 147.376 57.2309 147.646 57.0149 147.838C56.7989 148.018 56.5289 148.108 56.2049 148.108ZM56.2049 137.416C55.7969 137.416 55.4729 137.308 55.2329 137.092C54.9929 136.864 54.8729 136.57 54.8729 136.21C54.8729 135.85 54.9929 135.562 55.2329 135.346C55.4729 135.13 55.7969 135.022 56.2049 135.022C56.6009 135.022 56.9189 135.13 57.1589 135.346C57.4109 135.562 57.5369 135.85 57.5369 136.21C57.5369 136.57 57.4169 136.864 57.1769 137.092C56.9369 137.308 56.6129 137.416 56.2049 137.416ZM62.8453 148.144C61.5373 148.144 60.4813 147.886 59.6773 147.37C59.2933 147.142 59.1013 146.818 59.1013 146.398C59.1013 146.158 59.1673 145.966 59.2993 145.822C59.4313 145.666 59.5933 145.588 59.7853 145.588C59.9893 145.588 60.2713 145.684 60.6313 145.876C61.0153 146.056 61.3633 146.194 61.6753 146.29C61.9993 146.386 62.4073 146.434 62.8993 146.434C63.4033 146.434 63.7933 146.35 64.0693 146.182C64.3573 146.014 64.5013 145.78 64.5013 145.48C64.5013 145.276 64.4413 145.114 64.3213 144.994C64.2133 144.874 64.0093 144.766 63.7093 144.67C63.4213 144.562 62.9773 144.442 62.3773 144.31C61.3093 144.094 60.5413 143.788 60.0733 143.392C59.6173 142.996 59.3893 142.45 59.3893 141.754C59.3893 141.226 59.5453 140.752 59.8573 140.332C60.1693 139.9 60.5953 139.57 61.1353 139.342C61.6873 139.102 62.3113 138.982 63.0073 138.982C63.5113 138.982 63.9973 139.048 64.4653 139.18C64.9333 139.3 65.3533 139.48 65.7253 139.72C66.1093 139.96 66.3013 140.278 66.3013 140.674C66.3013 140.914 66.2353 141.118 66.1033 141.286C65.9713 141.442 65.8093 141.52 65.6173 141.52C65.4853 141.52 65.3533 141.496 65.2213 141.448C65.1013 141.388 64.9453 141.304 64.7533 141.196C64.4053 141.016 64.1053 140.884 63.8533 140.8C63.6013 140.704 63.2893 140.656 62.9173 140.656C62.4733 140.656 62.1193 140.746 61.8553 140.926C61.6033 141.106 61.4773 141.352 61.4773 141.664C61.4773 141.964 61.6093 142.192 61.8733 142.348C62.1373 142.504 62.6473 142.66 63.4033 142.816C64.2073 142.984 64.8373 143.176 65.2933 143.392C65.7493 143.608 66.0733 143.878 66.2653 144.202C66.4693 144.526 66.5713 144.94 66.5713 145.444C66.5713 146.26 66.2293 146.914 65.5453 147.406C64.8733 147.898 63.9733 148.144 62.8453 148.144ZM69.5116 148.108C69.1876 148.108 68.9176 148.018 68.7016 147.838C68.4976 147.646 68.3956 147.376 68.3956 147.028V140.08C68.3956 139.732 68.4976 139.468 68.7016 139.288C68.9176 139.108 69.1876 139.018 69.5116 139.018C69.8356 139.018 70.1056 139.108 70.3216 139.288C70.5376 139.468 70.6456 139.732 70.6456 140.08V147.028C70.6456 147.376 70.5376 147.646 70.3216 147.838C70.1056 148.018 69.8356 148.108 69.5116 148.108ZM69.5116 137.416C69.1036 137.416 68.7796 137.308 68.5396 137.092C68.2996 136.864 68.1796 136.57 68.1796 136.21C68.1796 135.85 68.2996 135.562 68.5396 135.346C68.7796 135.13 69.1036 135.022 69.5116 135.022C69.9076 135.022 70.2256 135.13 70.4656 135.346C70.7176 135.562 70.8436 135.85 70.8436 136.21C70.8436 136.57 70.7236 136.864 70.4836 137.092C70.2436 137.308 69.9196 137.416 69.5116 137.416ZM76.9799 148.144C76.0799 148.144 75.2879 147.958 74.6039 147.586C73.9319 147.214 73.4099 146.68 73.0379 145.984C72.6659 145.288 72.4799 144.478 72.4799 143.554C72.4799 142.63 72.6659 141.826 73.0379 141.142C73.4099 140.446 73.9319 139.912 74.6039 139.54C75.2879 139.168 76.0799 138.982 76.9799 138.982C77.8799 138.982 78.6659 139.168 79.3379 139.54C80.0219 139.912 80.5439 140.446 80.9039 141.142C81.2759 141.826 81.4619 142.63 81.4619 143.554C81.4619 144.478 81.2759 145.288 80.9039 145.984C80.5439 146.68 80.0219 147.214 79.3379 147.586C78.6659 147.958 77.8799 148.144 76.9799 148.144ZM76.9619 146.398C77.6939 146.398 78.2519 146.158 78.6359 145.678C79.0199 145.198 79.2119 144.49 79.2119 143.554C79.2119 142.63 79.0199 141.928 78.6359 141.448C78.2519 140.956 77.6999 140.71 76.9799 140.71C76.2599 140.71 75.7019 140.956 75.3059 141.448C74.9219 141.928 74.7299 142.63 74.7299 143.554C74.7299 144.49 74.9219 145.198 75.3059 145.678C75.6899 146.158 76.2419 146.398 76.9619 146.398ZM87.8387 146.434C88.4387 146.47 88.7387 146.74 88.7387 147.244C88.7387 147.532 88.6187 147.754 88.3787 147.91C88.1507 148.054 87.8207 148.114 87.3887 148.09L86.9027 148.054C84.8867 147.91 83.8787 146.83 83.8787 144.814V140.89H82.9787C82.6547 140.89 82.4027 140.818 82.2227 140.674C82.0547 140.53 81.9707 140.32 81.9707 140.044C81.9707 139.768 82.0547 139.558 82.2227 139.414C82.4027 139.27 82.6547 139.198 82.9787 139.198H83.8787V137.542C83.8787 137.218 83.9807 136.96 84.1847 136.768C84.3887 136.576 84.6647 136.48 85.0127 136.48C85.3487 136.48 85.6187 136.576 85.8227 136.768C86.0267 136.96 86.1287 137.218 86.1287 137.542V139.198H87.6587C87.9827 139.198 88.2287 139.27 88.3967 139.414C88.5767 139.558 88.6667 139.768 88.6667 140.044C88.6667 140.32 88.5767 140.53 88.3967 140.674C88.2287 140.818 87.9827 140.89 87.6587 140.89H86.1287V144.976C86.1287 145.864 86.5367 146.338 87.3527 146.398L87.8387 146.434ZM96.8772 145.588C97.0812 145.588 97.2432 145.666 97.3632 145.822C97.4952 145.978 97.5612 146.188 97.5612 146.452C97.5612 146.824 97.3392 147.136 96.8952 147.388C96.4872 147.616 96.0252 147.802 95.5092 147.946C94.9932 148.078 94.5012 148.144 94.0332 148.144C92.6172 148.144 91.4952 147.736 90.6672 146.92C89.8392 146.104 89.4252 144.988 89.4252 143.572C89.4252 142.672 89.6052 141.874 89.9652 141.178C90.3252 140.482 90.8292 139.942 91.4772 139.558C92.1372 139.174 92.8812 138.982 93.7092 138.982C94.5012 138.982 95.1912 139.156 95.7792 139.504C96.3672 139.852 96.8232 140.344 97.1472 140.98C97.4712 141.616 97.6332 142.366 97.6332 143.23C97.6332 143.746 97.4052 144.004 96.9492 144.004H91.6392C91.7112 144.832 91.9452 145.444 92.3412 145.84C92.7372 146.224 93.3132 146.416 94.0692 146.416C94.4532 146.416 94.7892 146.368 95.0772 146.272C95.3772 146.176 95.7132 146.044 96.0852 145.876C96.4452 145.684 96.7092 145.588 96.8772 145.588ZM93.7632 140.566C93.1512 140.566 92.6592 140.758 92.2872 141.142C91.9272 141.526 91.7112 142.078 91.6392 142.798H95.7072C95.6832 142.066 95.5032 141.514 95.1672 141.142C94.8312 140.758 94.3632 140.566 93.7632 140.566ZM104.388 139.018C104.7 138.994 104.946 139.06 105.126 139.216C105.306 139.372 105.396 139.606 105.396 139.918C105.396 140.242 105.318 140.482 105.162 140.638C105.006 140.794 104.724 140.896 104.316 140.944L103.776 140.998C103.068 141.07 102.546 141.31 102.21 141.718C101.886 142.126 101.724 142.636 101.724 143.248V147.028C101.724 147.376 101.616 147.646 101.4 147.838C101.184 148.018 100.914 148.108 100.59 148.108C100.266 148.108 99.9957 148.018 99.7797 147.838C99.5757 147.646 99.4737 147.376 99.4737 147.028V140.062C99.4737 139.726 99.5757 139.468 99.7797 139.288C99.9957 139.108 100.26 139.018 100.572 139.018C100.884 139.018 101.136 139.108 101.328 139.288C101.52 139.456 101.616 139.702 101.616 140.026V140.746C101.844 140.218 102.18 139.81 102.624 139.522C103.08 139.234 103.584 139.072 104.136 139.036L104.388 139.018ZM110.145 138.982C111.369 138.982 112.275 139.288 112.863 139.9C113.463 140.5 113.763 141.418 113.763 142.654V147.046C113.763 147.37 113.667 147.628 113.475 147.82C113.283 148 113.019 148.09 112.683 148.09C112.371 148.09 112.113 147.994 111.909 147.802C111.717 147.61 111.621 147.358 111.621 147.046V146.65C111.417 147.118 111.093 147.484 110.649 147.748C110.217 148.012 109.713 148.144 109.137 148.144C108.549 148.144 108.015 148.024 107.535 147.784C107.055 147.544 106.677 147.214 106.401 146.794C106.125 146.374 105.987 145.906 105.987 145.39C105.987 144.742 106.149 144.232 106.473 143.86C106.809 143.488 107.349 143.218 108.093 143.05C108.837 142.882 109.863 142.798 111.171 142.798H111.621V142.384C111.621 141.796 111.495 141.37 111.243 141.106C110.991 140.83 110.583 140.692 110.019 140.692C109.671 140.692 109.317 140.746 108.957 140.854C108.597 140.95 108.171 141.094 107.679 141.286C107.367 141.442 107.139 141.52 106.995 141.52C106.779 141.52 106.599 141.442 106.455 141.286C106.323 141.13 106.257 140.926 106.257 140.674C106.257 140.47 106.305 140.296 106.401 140.152C106.509 139.996 106.683 139.852 106.923 139.72C107.343 139.492 107.841 139.312 108.417 139.18C109.005 139.048 109.581 138.982 110.145 138.982ZM109.587 146.524C110.187 146.524 110.673 146.326 111.045 145.93C111.429 145.522 111.621 145 111.621 144.364V143.986H111.297C110.493 143.986 109.869 144.022 109.425 144.094C108.981 144.166 108.663 144.292 108.471 144.472C108.279 144.652 108.183 144.898 108.183 145.21C108.183 145.594 108.315 145.912 108.579 146.164C108.855 146.404 109.191 146.524 109.587 146.524ZM121.108 138.982C121.864 138.982 122.536 139.174 123.124 139.558C123.724 139.942 124.186 140.488 124.51 141.196C124.846 141.892 125.014 142.696 125.014 143.608C125.014 144.52 124.846 145.318 124.51 146.002C124.186 146.686 123.73 147.214 123.142 147.586C122.554 147.958 121.876 148.144 121.108 148.144C120.484 148.144 119.926 148.012 119.434 147.748C118.942 147.484 118.564 147.118 118.3 146.65V150.322C118.3 150.634 118.198 150.88 117.994 151.06C117.79 151.24 117.52 151.33 117.184 151.33C116.848 151.33 116.572 151.234 116.356 151.042C116.152 150.85 116.05 150.598 116.05 150.286V140.08C116.05 139.756 116.146 139.498 116.338 139.306C116.542 139.114 116.812 139.018 117.148 139.018C117.484 139.018 117.754 139.114 117.958 139.306C118.162 139.498 118.264 139.756 118.264 140.08V140.53C118.528 140.038 118.906 139.66 119.398 139.396C119.902 139.12 120.472 138.982 121.108 138.982ZM120.514 146.398C121.222 146.398 121.774 146.158 122.17 145.678C122.566 145.186 122.764 144.496 122.764 143.608C122.764 142.696 122.566 141.988 122.17 141.484C121.774 140.98 121.222 140.728 120.514 140.728C119.794 140.728 119.236 140.974 118.84 141.466C118.456 141.958 118.264 142.66 118.264 143.572C118.264 144.472 118.456 145.168 118.84 145.66C119.236 146.152 119.794 146.398 120.514 146.398ZM127.976 148.108C127.652 148.108 127.382 148.018 127.166 147.838C126.962 147.646 126.86 147.376 126.86 147.028V140.08C126.86 139.732 126.962 139.468 127.166 139.288C127.382 139.108 127.652 139.018 127.976 139.018C128.3 139.018 128.57 139.108 128.786 139.288C129.002 139.468 129.11 139.732 129.11 140.08V147.028C129.11 147.376 129.002 147.646 128.786 147.838C128.57 148.018 128.3 148.108 127.976 148.108ZM127.976 137.416C127.568 137.416 127.244 137.308 127.004 137.092C126.764 136.864 126.644 136.57 126.644 136.21C126.644 135.85 126.764 135.562 127.004 135.346C127.244 135.13 127.568 135.022 127.976 135.022C128.372 135.022 128.69 135.13 128.93 135.346C129.182 135.562 129.308 135.85 129.308 136.21C129.308 136.57 129.188 136.864 128.948 137.092C128.708 137.308 128.384 137.416 127.976 137.416ZM134.617 148.144C133.309 148.144 132.253 147.886 131.449 147.37C131.065 147.142 130.873 146.818 130.873 146.398C130.873 146.158 130.939 145.966 131.071 145.822C131.203 145.666 131.365 145.588 131.557 145.588C131.761 145.588 132.043 145.684 132.403 145.876C132.787 146.056 133.135 146.194 133.447 146.29C133.771 146.386 134.179 146.434 134.671 146.434C135.175 146.434 135.565 146.35 135.841 146.182C136.129 146.014 136.273 145.78 136.273 145.48C136.273 145.276 136.213 145.114 136.093 144.994C135.985 144.874 135.781 144.766 135.481 144.67C135.193 144.562 134.749 144.442 134.149 144.31C133.081 144.094 132.313 143.788 131.845 143.392C131.389 142.996 131.161 142.45 131.161 141.754C131.161 141.226 131.317 140.752 131.629 140.332C131.941 139.9 132.367 139.57 132.907 139.342C133.459 139.102 134.083 138.982 134.779 138.982C135.283 138.982 135.769 139.048 136.237 139.18C136.705 139.3 137.125 139.48 137.497 139.72C137.881 139.96 138.073 140.278 138.073 140.674C138.073 140.914 138.007 141.118 137.875 141.286C137.743 141.442 137.581 141.52 137.389 141.52C137.257 141.52 137.125 141.496 136.993 141.448C136.873 141.388 136.717 141.304 136.525 141.196C136.177 141.016 135.877 140.884 135.625 140.8C135.373 140.704 135.061 140.656 134.689 140.656C134.245 140.656 133.891 140.746 133.627 140.926C133.375 141.106 133.249 141.352 133.249 141.664C133.249 141.964 133.381 142.192 133.645 142.348C133.909 142.504 134.419 142.66 135.175 142.816C135.979 142.984 136.609 143.176 137.065 143.392C137.521 143.608 137.845 143.878 138.037 144.202C138.241 144.526 138.343 144.94 138.343 145.444C138.343 146.26 138.001 146.914 137.317 147.406C136.645 147.898 135.745 148.144 134.617 148.144Z" fill="#110F14"/>
</svg>
