<svg width="183" height="175" viewBox="0 0 183 175" fill="none" xmlns="http://www.w3.org/2000/svg">
<rect width="183" height="175" rx="16" fill="#FBFBFB"/>
<rect x="52" y="20" width="80" height="80" rx="40" fill="#DDF1FF"/>
<path d="M101.709 61.2769C102.554 60.4259 103.722 60.3715 104.496 60.6824V55.5005C104.496 54.1947 105.566 53.1252 106.872 53.1252C108.161 53.1252 108.892 54.0671 109.231 55.3398C109.634 56.8551 110.243 60.5389 110.732 62.3612C111.068 64.1826 110.466 65.5764 109.308 66.6984L104.312 71.6934C103.81 72.1949 103.874 72.3308 103.874 74.3764L95.1211 74.3752V70.8193C95.1211 69.4941 95.1631 67.875 96.6299 66.3966L101.709 61.2769Z" fill="#FDD5A6"/>
<path d="M82.2872 61.2769C81.4429 60.4259 80.274 60.3715 79.5003 60.6824V55.5005C79.5003 54.1947 78.4306 53.1252 77.1246 53.1252C75.8354 53.1252 75.1047 54.0671 74.7659 55.3398C74.3626 56.8551 73.7539 60.5389 73.2647 62.3612C72.9283 64.1826 73.53 65.5764 74.6883 66.6984L79.6846 71.6934C80.1861 72.1949 80.1229 72.3308 80.1229 74.3764L88.8753 74.3752V70.8193C88.8753 69.4941 88.8333 67.875 87.3665 66.3966L82.2872 61.2769Z" fill="#FDD5A6"/>
<path d="M92.0013 41.2514C86.1407 41.2514 81.376 46.0114 81.376 51.8721C81.376 57.7327 86.1407 62.4974 92.0013 62.4974C97.8619 62.4974 102.627 57.7327 102.627 51.8721C102.627 46.0114 97.8619 41.2514 92.0013 41.2514Z" fill="#159FF3"/>
<path d="M89.5009 46.248V49.3761H86.3728C86.0294 49.3773 85.7512 49.6554 85.75 49.9989V53.7498C85.7512 54.0933 86.0294 54.3715 86.3728 54.3727H89.5009V57.5008C89.5021 57.8443 89.7803 58.1224 90.1238 58.1236H93.8747C94.22 58.1249 94.5009 57.8461 94.5022 57.5008V54.3727H97.6256C97.9691 54.3715 98.2473 54.0933 98.2485 53.7498V49.9989C98.2473 49.6554 97.9691 49.3773 97.6256 49.3761H94.5022V46.248C94.5009 45.9027 94.22 45.6238 93.8747 45.6252H90.0938C89.7439 45.657 89.5005 45.9265 89.5009 46.248Z" fill="#DBE9EE"/>
<path d="M79.4998 59.3839C78.841 59.5481 78.2161 59.8827 77.7066 60.3922C76.2072 61.8917 76.2072 64.3579 77.7066 65.8574L81.3785 69.5304C81.9676 70.1446 82.8764 69.2357 82.2623 68.6467L78.5904 64.9736C77.5752 63.9584 77.5753 62.2912 78.5904 61.2761C78.8561 61.0103 79.1679 60.8169 79.4998 60.6901V59.3839Z" fill="#FDCE97"/>
<path d="M78.8726 73.748C78.7068 73.7487 78.5481 73.8152 78.4314 73.9329C78.3146 74.0505 78.2494 74.2097 78.25 74.3755V78.1218C78.2494 78.2875 78.3146 78.4467 78.4314 78.5644C78.5481 78.6821 78.7068 78.7486 78.8726 78.7492H90.125C90.2072 78.7491 90.2885 78.7327 90.3644 78.7011C90.4402 78.6695 90.5091 78.6231 90.567 78.5648C90.6249 78.5066 90.6708 78.4374 90.702 78.3614C90.7332 78.2854 90.7491 78.204 90.7488 78.1218V74.3755C90.7491 74.2933 90.7332 74.2118 90.702 74.1358C90.6708 74.0598 90.6249 73.9907 90.567 73.9324C90.5091 73.8741 90.4402 73.8278 90.3644 73.7962C90.2885 73.7645 90.2072 73.7482 90.125 73.748H78.8726Z" fill="#159FF3"/>
<path d="M104.497 59.3839C105.156 59.5481 105.781 59.8827 106.29 60.3922C107.79 61.8917 107.79 64.3579 106.29 65.8574L102.618 69.5305C102.029 70.1438 101.121 69.2358 101.735 68.6467L105.406 64.9736C106.422 63.9584 106.422 62.2912 105.406 61.2761C105.141 61.0103 104.829 60.8169 104.497 60.6901V59.3839Z" fill="#FDCE97"/>
<path d="M105.124 73.748C105.29 73.7487 105.449 73.8152 105.565 73.9329C105.682 74.0505 105.747 74.2097 105.747 74.3755V78.1218C105.747 78.2875 105.682 78.4467 105.565 78.5644C105.449 78.6821 105.29 78.7486 105.124 78.7492H93.8718C93.7896 78.7491 93.7083 78.7327 93.6325 78.701C93.5566 78.6694 93.4878 78.6231 93.4298 78.5648C93.3719 78.5066 93.326 78.4374 93.2948 78.3614C93.2636 78.2854 93.2477 78.204 93.2481 78.1218V74.3755C93.2477 74.2933 93.2636 74.2119 93.2948 74.1359C93.326 74.0598 93.3719 73.9907 93.4298 73.9324C93.4878 73.8741 93.5566 73.8278 93.6325 73.7962C93.7083 73.7645 93.7896 73.7482 93.8718 73.748H105.124Z" fill="#159FF3"/>
<path d="M58.3993 148.162C57.1753 148.162 56.1013 147.898 55.1773 147.37C54.2653 146.842 53.5633 146.086 53.0713 145.102C52.5793 144.118 52.3333 142.966 52.3333 141.646C52.3333 140.326 52.5793 139.18 53.0713 138.208C53.5633 137.224 54.2653 136.468 55.1773 135.94C56.1013 135.412 57.1753 135.148 58.3993 135.148C59.1913 135.148 59.9353 135.268 60.6313 135.508C61.3273 135.736 61.9453 136.072 62.4853 136.516C62.6413 136.636 62.7493 136.762 62.8093 136.894C62.8693 137.026 62.8993 137.188 62.8993 137.38C62.8993 137.644 62.8273 137.866 62.6833 138.046C62.5393 138.226 62.3653 138.316 62.1613 138.316C61.9213 138.316 61.6753 138.232 61.4233 138.064C60.9073 137.68 60.4273 137.416 59.9833 137.272C59.5393 137.116 59.0473 137.038 58.5073 137.038C57.2593 137.038 56.3113 137.428 55.6633 138.208C55.0273 138.988 54.7093 140.134 54.7093 141.646C54.7093 143.17 55.0273 144.322 55.6633 145.102C56.3113 145.882 57.2593 146.272 58.5073 146.272C59.0233 146.272 59.4973 146.194 59.9293 146.038C60.3733 145.882 60.8713 145.618 61.4233 145.246C61.5433 145.174 61.6633 145.114 61.7833 145.066C61.9033 145.018 62.0293 144.994 62.1613 144.994C62.3653 144.994 62.5393 145.084 62.6833 145.264C62.8273 145.444 62.8993 145.666 62.8993 145.93C62.8993 146.11 62.8693 146.272 62.8093 146.416C62.7493 146.548 62.6413 146.674 62.4853 146.794C61.9453 147.238 61.3273 147.58 60.6313 147.82C59.9353 148.048 59.1913 148.162 58.3993 148.162ZM68.3708 138.982C69.5948 138.982 70.5008 139.288 71.0888 139.9C71.6888 140.5 71.9888 141.418 71.9888 142.654V147.046C71.9888 147.37 71.8928 147.628 71.7008 147.82C71.5088 148 71.2448 148.09 70.9088 148.09C70.5968 148.09 70.3388 147.994 70.1348 147.802C69.9428 147.61 69.8468 147.358 69.8468 147.046V146.65C69.6428 147.118 69.3188 147.484 68.8748 147.748C68.4428 148.012 67.9388 148.144 67.3628 148.144C66.7748 148.144 66.2408 148.024 65.7608 147.784C65.2808 147.544 64.9028 147.214 64.6268 146.794C64.3508 146.374 64.2128 145.906 64.2128 145.39C64.2128 144.742 64.3748 144.232 64.6988 143.86C65.0348 143.488 65.5748 143.218 66.3188 143.05C67.0628 142.882 68.0888 142.798 69.3968 142.798H69.8468V142.384C69.8468 141.796 69.7208 141.37 69.4688 141.106C69.2168 140.83 68.8088 140.692 68.2448 140.692C67.8968 140.692 67.5428 140.746 67.1828 140.854C66.8228 140.95 66.3968 141.094 65.9048 141.286C65.5928 141.442 65.3648 141.52 65.2208 141.52C65.0048 141.52 64.8248 141.442 64.6808 141.286C64.5488 141.13 64.4828 140.926 64.4828 140.674C64.4828 140.47 64.5308 140.296 64.6268 140.152C64.7348 139.996 64.9088 139.852 65.1488 139.72C65.5688 139.492 66.0668 139.312 66.6428 139.18C67.2308 139.048 67.8068 138.982 68.3708 138.982ZM67.8128 146.524C68.4128 146.524 68.8988 146.326 69.2708 145.93C69.6548 145.522 69.8468 145 69.8468 144.364V143.986H69.5228C68.7188 143.986 68.0948 144.022 67.6508 144.094C67.2068 144.166 66.8888 144.292 66.6968 144.472C66.5048 144.652 66.4088 144.898 66.4088 145.21C66.4088 145.594 66.5408 145.912 66.8048 146.164C67.0808 146.404 67.4168 146.524 67.8128 146.524ZM79.1895 139.018C79.5015 138.994 79.7475 139.06 79.9275 139.216C80.1075 139.372 80.1975 139.606 80.1975 139.918C80.1975 140.242 80.1195 140.482 79.9635 140.638C79.8075 140.794 79.5255 140.896 79.1175 140.944L78.5775 140.998C77.8695 141.07 77.3475 141.31 77.0115 141.718C76.6875 142.126 76.5255 142.636 76.5255 143.248V147.028C76.5255 147.376 76.4175 147.646 76.2015 147.838C75.9855 148.018 75.7155 148.108 75.3915 148.108C75.0675 148.108 74.7975 148.018 74.5815 147.838C74.3775 147.646 74.2755 147.376 74.2755 147.028V140.062C74.2755 139.726 74.3775 139.468 74.5815 139.288C74.7975 139.108 75.0615 139.018 75.3735 139.018C75.6855 139.018 75.9375 139.108 76.1295 139.288C76.3215 139.456 76.4175 139.702 76.4175 140.026V140.746C76.6455 140.218 76.9815 139.81 77.4255 139.522C77.8815 139.234 78.3855 139.072 78.9375 139.036L79.1895 139.018ZM87.9563 145.588C88.1603 145.588 88.3223 145.666 88.4423 145.822C88.5743 145.978 88.6403 146.188 88.6403 146.452C88.6403 146.824 88.4183 147.136 87.9743 147.388C87.5663 147.616 87.1043 147.802 86.5883 147.946C86.0723 148.078 85.5803 148.144 85.1123 148.144C83.6963 148.144 82.5743 147.736 81.7463 146.92C80.9183 146.104 80.5043 144.988 80.5043 143.572C80.5043 142.672 80.6843 141.874 81.0443 141.178C81.4043 140.482 81.9083 139.942 82.5563 139.558C83.2163 139.174 83.9603 138.982 84.7883 138.982C85.5803 138.982 86.2703 139.156 86.8583 139.504C87.4463 139.852 87.9023 140.344 88.2263 140.98C88.5503 141.616 88.7123 142.366 88.7123 143.23C88.7123 143.746 88.4843 144.004 88.0283 144.004H82.7183C82.7903 144.832 83.0243 145.444 83.4203 145.84C83.8163 146.224 84.3923 146.416 85.1483 146.416C85.5323 146.416 85.8683 146.368 86.1563 146.272C86.4563 146.176 86.7923 146.044 87.1643 145.876C87.5243 145.684 87.7883 145.588 87.9563 145.588ZM84.8423 140.566C84.2303 140.566 83.7383 140.758 83.3663 141.142C83.0063 141.526 82.7903 142.078 82.7183 142.798H86.7863C86.7623 142.066 86.5823 141.514 86.2463 141.142C85.9103 140.758 85.4423 140.566 84.8423 140.566ZM98.0048 139.018C98.3408 139.018 98.6108 139.114 98.8148 139.306C99.0188 139.498 99.1208 139.756 99.1208 140.08V147.19C99.1208 148.57 98.7368 149.614 97.9688 150.322C97.2008 151.03 96.0668 151.384 94.5668 151.384C93.2588 151.384 92.1668 151.138 91.2908 150.646C90.8468 150.382 90.6248 150.064 90.6248 149.692C90.6248 149.428 90.6848 149.218 90.8048 149.062C90.9368 148.906 91.1048 148.828 91.3088 148.828C91.4168 148.828 91.5488 148.852 91.7048 148.9C91.8608 148.96 92.0228 149.026 92.1908 149.098C92.6228 149.278 93.0068 149.416 93.3428 149.512C93.6908 149.608 94.0868 149.656 94.5308 149.656C96.1028 149.656 96.8888 148.888 96.8888 147.352V146.2C96.6248 146.692 96.2408 147.076 95.7368 147.352C95.2328 147.616 94.6568 147.748 94.0088 147.748C93.2408 147.748 92.5568 147.568 91.9568 147.208C91.3688 146.836 90.9068 146.32 90.5708 145.66C90.2348 145 90.0668 144.238 90.0668 143.374C90.0668 142.51 90.2288 141.748 90.5528 141.088C90.8888 140.416 91.3568 139.9 91.9568 139.54C92.5568 139.168 93.2408 138.982 94.0088 138.982C94.6568 138.982 95.2328 139.12 95.7368 139.396C96.2408 139.66 96.6248 140.038 96.8888 140.53V140.062C96.8888 139.75 96.9908 139.498 97.1948 139.306C97.3988 139.114 97.6688 139.018 98.0048 139.018ZM94.6028 146.002C95.3228 146.002 95.8808 145.768 96.2768 145.3C96.6848 144.832 96.8888 144.19 96.8888 143.374C96.8888 142.546 96.6848 141.898 96.2768 141.43C95.8808 140.962 95.3228 140.728 94.6028 140.728C93.8948 140.728 93.3368 140.962 92.9288 141.43C92.5208 141.898 92.3168 142.546 92.3168 143.374C92.3168 144.19 92.5208 144.832 92.9288 145.3C93.3368 145.768 93.8948 146.002 94.6028 146.002ZM102.567 148.108C102.243 148.108 101.973 148.018 101.757 147.838C101.553 147.646 101.451 147.376 101.451 147.028V140.08C101.451 139.732 101.553 139.468 101.757 139.288C101.973 139.108 102.243 139.018 102.567 139.018C102.891 139.018 103.161 139.108 103.377 139.288C103.593 139.468 103.701 139.732 103.701 140.08V147.028C103.701 147.376 103.593 147.646 103.377 147.838C103.161 148.018 102.891 148.108 102.567 148.108ZM102.567 137.416C102.159 137.416 101.835 137.308 101.595 137.092C101.355 136.864 101.235 136.57 101.235 136.21C101.235 135.85 101.355 135.562 101.595 135.346C101.835 135.13 102.159 135.022 102.567 135.022C102.963 135.022 103.281 135.13 103.521 135.346C103.773 135.562 103.899 135.85 103.899 136.21C103.899 136.57 103.779 136.864 103.539 137.092C103.299 137.308 102.975 137.416 102.567 137.416ZM112.16 139.666C112.256 139.45 112.382 139.288 112.538 139.18C112.706 139.072 112.886 139.018 113.078 139.018C113.354 139.018 113.6 139.114 113.816 139.306C114.044 139.486 114.158 139.714 114.158 139.99C114.158 140.134 114.122 140.278 114.05 140.422L110.72 147.388C110.612 147.616 110.456 147.79 110.252 147.91C110.06 148.03 109.844 148.09 109.604 148.09C109.376 148.09 109.154 148.03 108.938 147.91C108.734 147.79 108.578 147.616 108.47 147.388L105.122 140.422C105.062 140.302 105.032 140.164 105.032 140.008C105.032 139.732 105.146 139.498 105.374 139.306C105.614 139.114 105.884 139.018 106.184 139.018C106.616 139.018 106.934 139.228 107.138 139.648L109.658 145.21L112.16 139.666ZM122.322 145.588C122.526 145.588 122.688 145.666 122.808 145.822C122.94 145.978 123.006 146.188 123.006 146.452C123.006 146.824 122.784 147.136 122.34 147.388C121.932 147.616 121.47 147.802 120.954 147.946C120.438 148.078 119.946 148.144 119.478 148.144C118.062 148.144 116.94 147.736 116.112 146.92C115.284 146.104 114.87 144.988 114.87 143.572C114.87 142.672 115.05 141.874 115.41 141.178C115.77 140.482 116.274 139.942 116.922 139.558C117.582 139.174 118.326 138.982 119.154 138.982C119.946 138.982 120.636 139.156 121.224 139.504C121.812 139.852 122.268 140.344 122.592 140.98C122.916 141.616 123.078 142.366 123.078 143.23C123.078 143.746 122.85 144.004 122.394 144.004H117.084C117.156 144.832 117.39 145.444 117.786 145.84C118.182 146.224 118.758 146.416 119.514 146.416C119.898 146.416 120.234 146.368 120.522 146.272C120.822 146.176 121.158 146.044 121.53 145.876C121.89 145.684 122.154 145.588 122.322 145.588ZM119.208 140.566C118.596 140.566 118.104 140.758 117.732 141.142C117.372 141.526 117.156 142.078 117.084 142.798H121.152C121.128 142.066 120.948 141.514 120.612 141.142C120.276 140.758 119.808 140.566 119.208 140.566ZM129.832 139.018C130.144 138.994 130.39 139.06 130.57 139.216C130.75 139.372 130.84 139.606 130.84 139.918C130.84 140.242 130.762 140.482 130.606 140.638C130.45 140.794 130.168 140.896 129.76 140.944L129.22 140.998C128.512 141.07 127.99 141.31 127.654 141.718C127.33 142.126 127.168 142.636 127.168 143.248V147.028C127.168 147.376 127.06 147.646 126.844 147.838C126.628 148.018 126.358 148.108 126.034 148.108C125.71 148.108 125.44 148.018 125.224 147.838C125.02 147.646 124.918 147.376 124.918 147.028V140.062C124.918 139.726 125.02 139.468 125.224 139.288C125.44 139.108 125.704 139.018 126.016 139.018C126.328 139.018 126.58 139.108 126.772 139.288C126.964 139.456 127.06 139.702 127.06 140.026V140.746C127.288 140.218 127.624 139.81 128.068 139.522C128.524 139.234 129.028 139.072 129.58 139.036L129.832 139.018Z" fill="#110F14"/>
</svg>
